<svg width="249" height="73" viewBox="0 0 249 73" fill="none" xmlns="http://www.w3.org/2000/svg">
<g clip-path="url(#clip0_302_1848)">
<g clip-path="url(#clip1_302_1848)">
<path d="M0.0930899 41.4855C0.0908842 46.7197 1.47405 51.8622 4.10344 56.3956C6.73282 60.929 10.5157 64.6935 15.0715 67.3103C19.6273 69.9271 24.7954 71.304 30.0557 71.3024C35.3161 71.3008 40.4833 69.9207 45.0375 67.3012C49.5917 64.6816 53.3722 60.9148 55.9988 56.3797C58.6254 51.8447 60.0054 46.7014 60 41.4672C59.9945 36.233 58.6039 31.0925 55.9679 26.5628C53.3319 22.0332 49.5435 18.2742 44.9839 15.664C45.7288 17.2251 46.1123 18.9326 46.1063 20.6608C46.1003 22.3889 45.7048 24.0937 44.9491 25.6496C44.1933 27.2056 43.0965 28.5731 41.7393 29.6515C40.3822 30.7298 38.7992 31.4916 37.1071 31.8808C38.7617 33.0838 40.0785 34.6889 40.9317 36.5429C41.7849 38.3968 42.1458 40.4376 41.9801 42.4699C41.8143 44.5023 41.1273 46.4584 39.9849 48.1512C38.8424 49.844 37.2827 51.2169 35.4547 52.1386C33.6268 53.0603 31.5918 53.5001 29.5443 53.4158C27.4968 53.3315 25.5052 52.7261 23.76 51.6573C22.0148 50.5885 20.5743 49.0921 19.5763 47.3113C18.5782 45.5304 18.056 43.5245 18.0594 41.4855C18.0594 40.9938 18.0952 38.0868 18.1525 37.6023V9.10176C18.091 6.75024 17.1101 4.51532 15.4184 2.87212C13.7268 1.22892 11.4577 0.307007 9.09367 0.302367C6.72959 0.297727 4.45691 1.21073 2.75875 2.84728C1.0606 4.48383 0.0708806 6.71487 0 9.06613L0 37.6023" fill="#9E5CF2"/>
<path d="M34.3071 28.5747C38.8195 28.5747 42.4776 24.9349 42.4776 20.445C42.4776 15.955 38.8195 12.3152 34.3071 12.3152C29.7947 12.3152 26.1367 15.955 26.1367 20.445C26.1367 24.9349 29.7947 28.5747 34.3071 28.5747Z" fill="#3E3232"/>
</g>
</g>
<path d="M96.34 42.8447C97.6933 43.7913 98.7733 45.008 99.58 46.4947C100.393 47.9747 100.8 49.5947 100.8 51.3547V51.4547C100.8 52.868 100.53 54.208 99.99 55.4747C99.45 56.7413 98.7067 57.838 97.76 58.7647C96.8133 59.6913 95.7167 60.4247 94.47 60.9647C93.2233 61.5047 91.89 61.7747 90.47 61.7747H80.4L82.83 55.7047H90.47C91.65 55.7047 92.6533 55.2913 93.48 54.4647C94.3067 53.638 94.72 52.6347 94.72 51.4547V51.3547C94.72 50.168 94.3067 49.1613 93.48 48.3347C92.6533 47.508 91.65 47.0947 90.47 47.0947H87.99H78.07V55.7047V61.7747H72V47.0947V41.0247V26.3547H87.99C89.41 26.3547 90.7533 26.6247 92.02 27.1647C93.28 27.7047 94.3733 28.4447 95.3 29.3847C96.2333 30.3313 96.97 31.428 97.51 32.6747C98.05 33.9213 98.32 35.2547 98.32 36.6747V36.7747C98.32 37.9213 98.14 39.0113 97.78 40.0447C97.4267 41.0713 96.9467 42.0047 96.34 42.8447ZM92.24 36.7747V36.6747C92.24 35.4947 91.8267 34.4913 91 33.6647C90.1733 32.838 89.17 32.4247 87.99 32.4247H78.07V41.0247H87.99C89.17 41.0247 90.1733 40.6113 91 39.7847C91.8267 38.958 92.24 37.9547 92.24 36.7747ZM116.68 41.8347C114.66 41.8347 112.94 42.5447 111.52 43.9647C110.107 45.378 109.4 47.098 109.4 49.1247C109.4 51.1113 110.107 52.8147 111.52 54.2347C112.2 54.9413 112.987 55.4713 113.88 55.8247C114.773 56.1847 115.707 56.3647 116.68 56.3647C117.66 56.3647 118.59 56.1847 119.47 55.8247C120.343 55.4713 121.137 54.9413 121.85 54.2347C123.263 52.8147 123.97 51.1113 123.97 49.1247C123.97 47.098 123.263 45.378 121.85 43.9647C120.363 42.5447 118.64 41.8347 116.68 41.8347ZM116.68 35.7647C118.54 35.7647 120.28 36.1113 121.9 36.8047C123.52 37.4913 124.937 38.4447 126.15 39.6647C127.363 40.878 128.317 42.2947 129.01 43.9147C129.697 45.5347 130.04 47.2713 130.04 49.1247C130.04 50.9447 129.697 52.6647 129.01 54.2847C128.317 55.9047 127.363 57.3213 126.15 58.5347C124.937 59.748 123.52 60.7013 121.9 61.3947C120.28 62.088 118.54 62.4347 116.68 62.4347C114.827 62.4347 113.09 62.088 111.47 61.3947C109.85 60.7013 108.433 59.748 107.22 58.5347C106.007 57.3213 105.053 55.9047 104.36 54.2847C103.673 52.6647 103.33 50.9447 103.33 49.1247C103.33 47.2713 103.673 45.5347 104.36 43.9147C105.053 42.2947 106.007 40.878 107.22 39.6647C108.433 38.4447 109.85 37.4913 111.47 36.8047C113.09 36.1113 114.827 35.7647 116.68 35.7647ZM145.43 41.8347C143.403 41.8347 141.683 42.5447 140.27 43.9647C138.85 45.378 138.14 47.098 138.14 49.1247C138.14 51.1113 138.85 52.8147 140.27 54.2347C140.943 54.9413 141.727 55.4713 142.62 55.8247C143.513 56.1847 144.45 56.3647 145.43 56.3647C146.41 56.3647 147.337 56.1847 148.21 55.8247C149.09 55.4713 149.883 54.9413 150.59 54.2347C152.01 52.8147 152.72 51.1113 152.72 49.1247C152.72 47.098 152.01 45.378 150.59 43.9647C149.103 42.5447 147.383 41.8347 145.43 41.8347ZM145.43 35.7647C147.283 35.7647 149.02 36.1113 150.64 36.8047C152.26 37.4913 153.677 38.4447 154.89 39.6647C156.103 40.878 157.057 42.2947 157.75 43.9147C158.443 45.5347 158.79 47.2713 158.79 49.1247C158.79 50.9447 158.443 52.6647 157.75 54.2847C157.057 55.9047 156.103 57.3213 154.89 58.5347C153.677 59.748 152.26 60.7013 150.64 61.3947C149.02 62.088 147.283 62.4347 145.43 62.4347C143.57 62.4347 141.833 62.088 140.22 61.3947C138.6 60.7013 137.183 59.748 135.97 58.5347C134.75 57.3213 133.797 55.9047 133.11 54.2847C132.417 52.6647 132.07 50.9447 132.07 49.1247C132.07 47.2713 132.417 45.5347 133.11 43.9147C133.797 42.2947 134.75 40.878 135.97 39.6647C137.183 38.4447 138.6 37.4913 140.22 36.8047C141.833 36.1113 143.57 35.7647 145.43 35.7647ZM184.6 36.4747L171.94 49.1247L184.6 61.7747H176.04L167.64 53.3747V61.7747H161.57V26.3547H167.64V44.8247L175.99 36.4747H184.6ZM192.69 61.7747H186.62V36.4747H192.69V61.7747ZM186.62 32.4247V26.3547H192.69V32.4247H186.62ZM208.99 35.7647C210.643 35.7647 212.143 36.078 213.49 36.7047C214.843 37.3247 216 38.1847 216.96 39.2847C217.92 40.378 218.66 41.6513 219.18 43.1047C219.707 44.5513 219.97 46.1013 219.97 47.7547V61.7747H213.9V47.7547C213.9 46.068 213.307 44.668 212.12 43.5547C210.973 42.408 209.593 41.8347 207.98 41.8347C206.327 41.8347 204.927 42.408 203.78 43.5547C202.627 44.7013 202.05 46.1013 202.05 47.7547V61.7747H195.98V36.4747H202.05V38.3947C202.963 37.6213 203.993 36.988 205.14 36.4947C206.287 36.008 207.57 35.7647 208.99 35.7647ZM248.96 36.4747V59.2447C248.96 61.0647 248.617 62.7847 247.93 64.4047C247.237 66.0247 246.283 67.4413 245.07 68.6547C243.857 69.868 242.44 70.8313 240.82 71.5447C239.2 72.2513 237.463 72.6047 235.61 72.6047C234.09 72.6047 232.653 72.368 231.3 71.8947C229.953 71.4213 228.707 70.748 227.56 69.8747L231.96 65.5147C233.04 66.1947 234.257 66.5347 235.61 66.5347C237.663 66.5347 239.383 65.808 240.77 64.3547C242.183 62.9413 242.89 61.238 242.89 59.2447V49.0747C242.89 47.1147 242.183 45.3947 240.77 43.9147C239.35 42.4947 237.63 41.7847 235.61 41.7847C233.65 41.7847 231.927 42.4947 230.44 43.9147C229.027 45.3947 228.32 47.1147 228.32 49.0747C228.32 51.0947 229.027 52.8147 230.44 54.2347C231.927 55.6547 233.65 56.3647 235.61 56.3647C236.617 56.3647 237.527 56.1947 238.34 55.8547L240.62 61.5247C239.1 62.1313 237.463 62.4347 235.71 62.4347H235.61C233.783 62.4347 232.06 62.088 230.44 61.3947C228.82 60.7013 227.403 59.748 226.19 58.5347C224.977 57.3213 224.017 55.9047 223.31 54.2847C222.603 52.6647 222.25 50.928 222.25 49.0747C222.25 47.2213 222.553 45.4847 223.16 43.8647C223.767 42.2447 224.617 40.828 225.71 39.6147C226.81 38.3947 228.127 37.4413 229.66 36.7547C231.193 36.0613 232.87 35.7147 234.69 35.7147C236.45 35.7147 238.003 35.9747 239.35 36.4947C240.697 37.0213 241.877 37.6713 242.89 38.4447V36.4747H248.96Z" fill="#333333"/>
<defs>
<clipPath id="clip0_302_1848">
<rect width="60" height="71.3547" fill="white"/>
</clipPath>
<clipPath id="clip1_302_1848">
<rect width="60" height="71" fill="white" transform="translate(0 0.302368)"/>
</clipPath>
</defs>
</svg>
