<svg width="177" height="125" viewBox="0 0 177 125" fill="none" xmlns="http://www.w3.org/2000/svg">
<g clip-path="url(#clip0_302_1849)">
<g clip-path="url(#clip1_302_1849)">
<path d="M58.5731 41.4855C58.5709 46.7197 59.954 51.8622 62.5834 56.3956C65.2128 60.929 68.9957 64.6935 73.5515 67.3103C78.1073 69.9271 83.2753 71.304 88.5357 71.3024C93.7961 71.3008 98.9633 69.9207 103.517 67.3012C108.072 64.6816 111.852 60.9148 114.479 56.3797C117.105 51.8447 118.485 46.7014 118.48 41.4672C118.475 36.233 117.084 31.0925 114.448 26.5628C111.812 22.0332 108.023 18.2742 103.464 15.664C104.209 17.2251 104.592 18.9326 104.586 20.6608C104.58 22.3889 104.185 24.0937 103.429 25.6496C102.673 27.2056 101.576 28.5731 100.219 29.6515C98.8621 30.7298 97.2792 31.4916 95.587 31.8808C97.2417 33.0838 98.5585 34.6889 99.4117 36.5429C100.265 38.3968 100.626 40.4376 100.46 42.4699C100.294 44.5023 99.6073 46.4584 98.4649 48.1512C97.3224 49.844 95.7627 51.2169 93.9347 52.1386C92.1068 53.0603 90.0718 53.5001 88.0243 53.4158C85.9768 53.3315 83.9852 52.7261 82.24 51.6573C80.4948 50.5885 79.0543 49.0921 78.0563 47.3113C77.0582 45.5304 76.5359 43.5245 76.5394 41.4855C76.5394 40.9938 76.5752 38.0868 76.6325 37.6023V9.10176C76.5709 6.75024 75.5901 4.51532 73.8984 2.87212C72.2068 1.22892 69.9377 0.307006 67.5736 0.302367C65.2096 0.297727 62.9369 1.21073 61.2387 2.84728C59.5406 4.48383 58.5509 6.71487 58.48 9.06613V37.6023" fill="#9E5CF2"/>
<path d="M92.7871 28.5747C97.2995 28.5747 100.958 24.9349 100.958 20.445C100.958 15.955 97.2995 12.3152 92.7871 12.3152C88.2747 12.3152 84.6167 15.955 84.6167 20.445C84.6167 24.9349 88.2747 28.5747 92.7871 28.5747Z" fill="#3E3232"/>
</g>
</g>
<path d="M24.34 94.8447C25.6933 95.7913 26.7733 97.008 27.58 98.4947C28.3933 99.9747 28.8 101.595 28.8 103.355V103.455C28.8 104.868 28.53 106.208 27.99 107.475C27.45 108.741 26.7067 109.838 25.76 110.765C24.8133 111.691 23.7167 112.425 22.47 112.965C21.2233 113.505 19.89 113.775 18.47 113.775H8.4L10.83 107.705H18.47C19.65 107.705 20.6533 107.291 21.48 106.465C22.3067 105.638 22.72 104.635 22.72 103.455V103.355C22.72 102.168 22.3067 101.161 21.48 100.335C20.6533 99.508 19.65 99.0947 18.47 99.0947H15.99H6.07V107.705V113.775H0V99.0947V93.0247V78.3547H15.99C17.41 78.3547 18.7533 78.6247 20.02 79.1647C21.28 79.7047 22.3733 80.4447 23.3 81.3847C24.2333 82.3313 24.97 83.428 25.51 84.6747C26.05 85.9213 26.32 87.2547 26.32 88.6747V88.7747C26.32 89.9213 26.14 91.0113 25.78 92.0447C25.4267 93.0713 24.9467 94.0047 24.34 94.8447ZM20.24 88.7747V88.6747C20.24 87.4947 19.8267 86.4913 19 85.6647C18.1733 84.838 17.17 84.4247 15.99 84.4247H6.07V93.0247H15.99C17.17 93.0247 18.1733 92.6113 19 91.7847C19.8267 90.958 20.24 89.9547 20.24 88.7747ZM44.68 93.8347C42.66 93.8347 40.94 94.5447 39.52 95.9647C38.1067 97.378 37.4 99.098 37.4 101.125C37.4 103.111 38.1067 104.815 39.52 106.235C40.2 106.941 40.9867 107.471 41.88 107.825C42.7733 108.185 43.7067 108.365 44.68 108.365C45.66 108.365 46.59 108.185 47.47 107.825C48.3433 107.471 49.1367 106.941 49.85 106.235C51.2633 104.815 51.97 103.111 51.97 101.125C51.97 99.098 51.2633 97.378 49.85 95.9647C48.3633 94.5447 46.64 93.8347 44.68 93.8347ZM44.68 87.7647C46.54 87.7647 48.28 88.1113 49.9 88.8047C51.52 89.4913 52.9367 90.4447 54.15 91.6647C55.3633 92.878 56.3167 94.2947 57.01 95.9147C57.6967 97.5347 58.04 99.2713 58.04 101.125C58.04 102.945 57.6967 104.665 57.01 106.285C56.3167 107.905 55.3633 109.321 54.15 110.535C52.9367 111.748 51.52 112.701 49.9 113.395C48.28 114.088 46.54 114.435 44.68 114.435C42.8267 114.435 41.09 114.088 39.47 113.395C37.85 112.701 36.4333 111.748 35.22 110.535C34.0067 109.321 33.0533 107.905 32.36 106.285C31.6733 104.665 31.33 102.945 31.33 101.125C31.33 99.2713 31.6733 97.5347 32.36 95.9147C33.0533 94.2947 34.0067 92.878 35.22 91.6647C36.4333 90.4447 37.85 89.4913 39.47 88.8047C41.09 88.1113 42.8267 87.7647 44.68 87.7647ZM73.43 93.8347C71.4033 93.8347 69.6833 94.5447 68.27 95.9647C66.85 97.378 66.14 99.098 66.14 101.125C66.14 103.111 66.85 104.815 68.27 106.235C68.9433 106.941 69.7267 107.471 70.62 107.825C71.5133 108.185 72.45 108.365 73.43 108.365C74.41 108.365 75.3367 108.185 76.21 107.825C77.09 107.471 77.8833 106.941 78.59 106.235C80.01 104.815 80.72 103.111 80.72 101.125C80.72 99.098 80.01 97.378 78.59 95.9647C77.1033 94.5447 75.3833 93.8347 73.43 93.8347ZM73.43 87.7647C75.2833 87.7647 77.02 88.1113 78.64 88.8047C80.26 89.4913 81.6767 90.4447 82.89 91.6647C84.1033 92.878 85.0567 94.2947 85.75 95.9147C86.4433 97.5347 86.79 99.2713 86.79 101.125C86.79 102.945 86.4433 104.665 85.75 106.285C85.0567 107.905 84.1033 109.321 82.89 110.535C81.6767 111.748 80.26 112.701 78.64 113.395C77.02 114.088 75.2833 114.435 73.43 114.435C71.57 114.435 69.8333 114.088 68.22 113.395C66.6 112.701 65.1833 111.748 63.97 110.535C62.75 109.321 61.7967 107.905 61.11 106.285C60.4167 104.665 60.07 102.945 60.07 101.125C60.07 99.2713 60.4167 97.5347 61.11 95.9147C61.7967 94.2947 62.75 92.878 63.97 91.6647C65.1833 90.4447 66.6 89.4913 68.22 88.8047C69.8333 88.1113 71.57 87.7647 73.43 87.7647ZM112.6 88.4747L99.94 101.125L112.6 113.775H104.04L95.64 105.375V113.775H89.57V78.3547H95.64V96.8247L103.99 88.4747H112.6ZM120.69 113.775H114.62V88.4747H120.69V113.775ZM114.62 84.4247V78.3547H120.69V84.4247H114.62ZM136.99 87.7647C138.643 87.7647 140.143 88.078 141.49 88.7047C142.843 89.3247 144 90.1847 144.96 91.2847C145.92 92.378 146.66 93.6513 147.18 95.1047C147.707 96.5513 147.97 98.1013 147.97 99.7547V113.775H141.9V99.7547C141.9 98.068 141.307 96.668 140.12 95.5547C138.973 94.408 137.593 93.8347 135.98 93.8347C134.327 93.8347 132.927 94.408 131.78 95.5547C130.627 96.7013 130.05 98.1013 130.05 99.7547V113.775H123.98V88.4747H130.05V90.3947C130.963 89.6213 131.993 88.988 133.14 88.4947C134.287 88.008 135.57 87.7647 136.99 87.7647ZM176.96 88.4747V111.245C176.96 113.065 176.617 114.785 175.93 116.405C175.237 118.025 174.283 119.441 173.07 120.655C171.857 121.868 170.44 122.831 168.82 123.545C167.2 124.251 165.463 124.605 163.61 124.605C162.09 124.605 160.653 124.368 159.3 123.895C157.953 123.421 156.707 122.748 155.56 121.875L159.96 117.515C161.04 118.195 162.257 118.535 163.61 118.535C165.663 118.535 167.383 117.808 168.77 116.355C170.183 114.941 170.89 113.238 170.89 111.245V101.075C170.89 99.1147 170.183 97.3947 168.77 95.9147C167.35 94.4947 165.63 93.7847 163.61 93.7847C161.65 93.7847 159.927 94.4947 158.44 95.9147C157.027 97.3947 156.32 99.1147 156.32 101.075C156.32 103.095 157.027 104.815 158.44 106.235C159.927 107.655 161.65 108.365 163.61 108.365C164.617 108.365 165.527 108.195 166.34 107.855L168.62 113.525C167.1 114.131 165.463 114.435 163.71 114.435H163.61C161.783 114.435 160.06 114.088 158.44 113.395C156.82 112.701 155.403 111.748 154.19 110.535C152.977 109.321 152.017 107.905 151.31 106.285C150.603 104.665 150.25 102.928 150.25 101.075C150.25 99.2213 150.553 97.4847 151.16 95.8647C151.767 94.2447 152.617 92.828 153.71 91.6147C154.81 90.3947 156.127 89.4413 157.66 88.7547C159.193 88.0613 160.87 87.7147 162.69 87.7147C164.45 87.7147 166.003 87.9747 167.35 88.4947C168.697 89.0213 169.877 89.6713 170.89 90.4447V88.4747H176.96Z" fill="#3E3232"/>
<defs>
<clipPath id="clip0_302_1849">
<rect width="60" height="71.3547" fill="white" transform="translate(58.48)"/>
</clipPath>
<clipPath id="clip1_302_1849">
<rect width="60" height="71" fill="white" transform="translate(58.48 0.302368)"/>
</clipPath>
</defs>
</svg>
