<svg width="1605" height="275" viewBox="0 0 1605 275" fill="none" xmlns="http://www.w3.org/2000/svg">
<g clip-path="url(#clip0_305_2007)">
<path d="M1702.99 300.561C1679.84 286.822 1655.89 272.618 1625.82 272.618C1595.74 272.618 1571.8 286.812 1548.64 300.561L1547.87 299.253C1571.16 285.413 1595.32 271.097 1625.84 271.097C1656.36 271.097 1680.46 285.413 1703.81 299.253L1702.99 300.561Z" fill="white" fill-opacity="0.5"/>
<path d="M1392.73 300.561C1369.57 286.822 1345.64 272.618 1315.56 272.618C1285.49 272.618 1261.54 286.812 1238.38 300.561L1237.61 299.253C1260.9 285.413 1285.06 271.097 1315.58 271.097C1346.1 271.097 1370.19 285.413 1393.55 299.253L1392.73 300.561Z" fill="white" fill-opacity="0.5"/>
<path d="M1720.66 300.581C1714.71 297.316 1708.75 293.778 1702.99 290.361C1679.84 276.602 1655.94 262.408 1625.82 262.408C1595.7 262.408 1571.8 276.602 1548.6 290.361C1542.84 293.778 1536.89 297.316 1530.93 300.581L1530.2 299.242C1536.13 295.988 1542.08 292.46 1547.83 289.053C1571.12 275.213 1595.28 260.897 1625.8 260.897C1656.32 260.897 1680.42 275.213 1703.77 289.053C1709.51 292.47 1715.46 295.988 1721.39 299.242L1720.66 300.581Z" fill="white" fill-opacity="0.5"/>
<path d="M1410.4 300.581C1404.45 297.316 1398.5 293.778 1392.73 290.361C1369.58 276.602 1345.64 262.408 1315.56 262.408C1285.49 262.408 1261.54 276.602 1238.38 290.351C1232.63 293.768 1226.67 297.306 1220.71 300.571L1219.98 299.232C1225.91 295.978 1231.86 292.45 1237.61 289.043C1260.9 275.203 1285.06 260.887 1315.58 260.887C1346.1 260.887 1370.2 275.203 1393.55 289.043C1399.3 292.45 1405.24 295.978 1411.17 299.232L1410.4 300.581Z" fill="white" fill-opacity="0.5"/>
<path d="M1742.15 300.621C1728.4 295.238 1715.49 287.573 1703 280.161C1679.84 266.463 1655.93 252.269 1625.82 252.269C1595.7 252.269 1571.8 266.463 1548.6 280.161C1536.11 287.573 1523.19 295.238 1509.44 300.621L1508.88 299.202C1522.56 293.838 1535.43 286.234 1547.87 278.853C1571.16 265.003 1595.32 250.698 1625.84 250.698C1656.36 250.698 1680.46 265.014 1703.81 278.853C1716.25 286.234 1729.13 293.869 1742.75 299.202L1742.15 300.621Z" fill="white" fill-opacity="0.5"/>
<path d="M1431.9 300.621C1418.14 295.238 1405.23 287.573 1392.73 280.161C1369.58 266.463 1345.64 252.269 1315.56 252.269C1285.49 252.269 1261.54 266.463 1238.38 280.212C1225.97 287.522 1213.14 295.136 1199.48 300.51L1198.94 299.1C1212.48 293.767 1225.27 286.184 1237.61 278.823C1260.9 264.973 1285.06 250.667 1315.58 250.667C1346.1 250.667 1370.2 264.983 1393.55 278.823C1405.99 286.204 1418.87 293.838 1432.49 299.171L1431.9 300.621Z" fill="white" fill-opacity="0.5"/>
<path d="M1470.69 298.117C1440.18 298.117 1416.06 283.801 1392.71 269.961C1369.56 256.223 1345.62 242.008 1315.54 242.008C1285.47 242.008 1261.52 256.203 1238.36 269.961C1225.97 277.322 1213.14 284.936 1199.48 290.31L1198.94 288.891C1212.48 283.568 1225.27 275.984 1237.61 268.613C1260.9 254.763 1285.06 240.447 1315.58 240.447C1346.1 240.447 1370.2 254.763 1393.55 268.613C1416.7 282.351 1440.64 296.556 1470.73 296.556C1500.81 296.556 1524.75 282.361 1547.91 268.613C1571.2 254.763 1595.36 240.447 1625.88 240.447V241.968C1595.8 241.968 1571.86 256.162 1548.7 269.921C1525.31 283.801 1501.19 298.117 1470.69 298.117Z" fill="white" fill-opacity="0.5"/>
<path d="M1470.69 287.917C1440.18 287.917 1416.06 273.601 1392.71 259.762C1369.56 246.013 1345.62 231.809 1315.54 231.809C1285.47 231.809 1261.52 246.003 1238.36 259.762C1225.97 267.122 1213.14 274.737 1199.48 280.11L1198.94 278.691C1212.48 273.368 1225.27 265.784 1237.61 258.413C1260.9 244.563 1285.06 230.247 1315.58 230.247C1346.1 230.247 1370.2 244.563 1393.55 258.413C1416.7 272.151 1440.64 286.356 1470.73 286.356C1500.81 286.356 1524.75 272.161 1547.91 258.413C1571.2 244.563 1595.36 230.247 1625.88 230.247V231.768C1595.8 231.768 1571.86 245.963 1548.7 259.721C1525.31 273.561 1501.19 287.917 1470.69 287.917Z" fill="white" fill-opacity="0.5"/>
<path d="M1470.69 277.718C1440.18 277.718 1416.06 263.402 1392.71 249.562C1369.56 235.814 1345.62 221.609 1315.54 221.609C1285.47 221.609 1261.52 235.804 1238.36 249.552C1225.97 256.923 1213.14 264.537 1199.48 269.911L1198.94 268.491C1212.48 263.158 1225.27 255.585 1237.61 248.214C1260.9 234.374 1285.06 220.058 1315.58 220.058C1346.1 220.058 1370.2 234.374 1393.55 248.214C1416.7 261.962 1440.64 276.166 1470.73 276.166C1500.81 276.166 1524.75 261.972 1547.91 248.214C1571.2 234.374 1595.36 220.058 1625.88 220.058V221.579C1595.8 221.579 1571.86 235.773 1548.7 249.532C1525.31 263.422 1501.19 277.718 1470.69 277.718Z" fill="white" fill-opacity="0.5"/>
<path d="M1470.69 267.477C1440.18 267.477 1416.06 253.161 1392.71 239.312C1369.56 225.573 1345.62 211.369 1315.54 211.369C1285.47 211.369 1261.52 225.563 1238.36 239.312C1225.97 246.713 1213.14 254.297 1199.48 259.701L1198.94 258.292C1212.48 252.959 1225.27 245.375 1237.61 238.014C1260.9 224.174 1285.06 209.858 1315.58 209.858C1346.1 209.858 1370.2 224.174 1393.55 238.014C1416.7 251.752 1440.64 265.967 1470.73 265.967C1500.81 265.967 1524.75 251.772 1547.91 238.014C1571.2 224.174 1595.36 209.858 1625.88 209.858V211.379C1595.8 211.379 1571.86 225.573 1548.7 239.322C1525.31 253.202 1501.19 267.477 1470.69 267.477Z" fill="white" fill-opacity="0.5"/>
<path d="M1470.69 257.339C1440.18 257.339 1416.06 243.022 1392.71 229.173C1369.56 215.435 1345.62 201.23 1315.54 201.23C1285.47 201.23 1261.52 215.424 1238.36 229.173C1225.97 236.513 1213.14 244.158 1199.48 249.501L1198.94 248.092C1212.48 242.759 1225.27 235.175 1237.61 227.814C1260.9 213.975 1285.06 199.658 1315.58 199.658C1346.1 199.658 1370.2 213.975 1393.55 227.814C1416.7 241.552 1440.64 255.767 1470.73 255.767C1500.81 255.767 1524.75 241.573 1547.91 227.814C1571.2 213.975 1595.36 199.658 1625.88 199.658V201.179C1595.8 201.179 1571.86 215.374 1548.7 229.122C1525.31 243.002 1501.19 257.339 1470.69 257.339Z" fill="white" fill-opacity="0.5"/>
<path d="M1470.69 247.108C1440.18 247.108 1416.06 232.792 1392.71 218.953C1369.56 205.214 1345.62 191 1315.54 191C1285.47 191 1261.52 205.194 1238.36 218.953C1225.97 226.313 1213.14 233.928 1199.48 239.301L1198.94 237.892C1212.48 232.559 1225.27 224.975 1237.61 217.614C1260.9 203.765 1285.06 189.448 1315.58 189.448C1346.1 189.448 1370.2 203.765 1393.55 217.614C1416.7 231.353 1440.64 245.557 1470.73 245.557C1500.81 245.557 1524.75 231.363 1547.91 217.614C1571.2 203.765 1595.36 189.448 1625.88 189.448V190.969C1595.8 190.969 1571.86 205.164 1548.7 218.922C1525.31 232.792 1501.19 247.108 1470.69 247.108Z" fill="white" fill-opacity="0.5"/>
<path d="M1470.69 236.909C1440.18 236.909 1416.06 222.592 1392.71 208.753C1369.56 195.015 1345.62 180.8 1315.54 180.8C1285.47 180.8 1261.52 194.994 1238.36 208.753C1225.97 216.114 1213.14 223.728 1199.48 229.102L1198.94 227.682C1212.48 222.359 1225.27 214.775 1237.61 207.404C1260.9 193.555 1285.06 179.239 1315.58 179.239C1346.1 179.239 1370.2 193.555 1393.55 207.404C1416.7 221.143 1440.64 235.347 1470.73 235.347C1500.81 235.347 1524.75 221.153 1547.91 207.404C1571.2 193.555 1595.36 179.239 1625.88 179.239V180.759C1595.8 180.759 1571.86 194.954 1548.7 208.712C1525.31 222.592 1501.19 236.909 1470.69 236.909Z" fill="white" fill-opacity="0.5"/>
<path d="M1470.69 226.709C1440.18 226.709 1416.06 212.393 1392.71 198.553C1369.56 184.805 1345.62 170.6 1315.54 170.6C1285.47 170.6 1261.52 184.795 1238.36 198.553C1225.97 205.914 1213.14 213.528 1199.48 218.902L1198.94 217.483C1212.48 212.149 1225.27 204.576 1237.61 197.205C1260.9 183.365 1285.06 169.049 1315.58 169.049C1346.1 169.049 1370.2 183.365 1393.55 197.205C1416.7 210.953 1440.64 225.158 1470.73 225.158C1500.81 225.158 1524.75 210.963 1547.91 197.205C1571.2 183.365 1595.36 169.049 1625.88 169.049V170.57C1595.8 170.57 1571.86 184.764 1548.7 198.523C1525.31 212.393 1501.19 226.709 1470.69 226.709Z" fill="white" fill-opacity="0.5"/>
<path d="M1470.69 216.509C1440.18 216.509 1416.06 202.193 1392.71 188.343C1369.56 174.605 1345.62 160.401 1315.54 160.401C1285.47 160.401 1261.54 174.605 1238.38 188.394C1225.97 195.714 1213.14 203.329 1199.48 208.672L1198.94 207.252C1212.48 201.919 1225.27 194.335 1237.61 186.975C1260.9 173.135 1285.06 158.819 1315.58 158.819C1346.1 158.819 1370.2 173.135 1393.55 186.975C1416.7 200.723 1440.64 214.927 1470.73 214.927C1500.81 214.927 1524.75 200.733 1547.91 186.975C1571.2 173.135 1595.36 158.819 1625.88 158.819V160.34C1595.8 160.34 1571.86 174.534 1548.7 188.282C1525.31 202.193 1501.19 216.509 1470.69 216.509Z" fill="white" fill-opacity="0.5"/>
<path d="M1470.69 206.309C1440.18 206.309 1416.06 191.993 1392.71 178.144C1369.56 164.405 1345.62 150.201 1315.54 150.201C1285.47 150.201 1261.52 164.395 1238.36 178.144C1225.97 185.504 1213.14 193.119 1199.48 198.533L1198.94 197.124C1212.48 191.791 1225.27 184.207 1237.61 176.846C1260.9 163.006 1285.06 148.69 1315.58 148.69C1346.1 148.69 1370.2 163.006 1393.55 176.846C1416.7 190.584 1440.64 204.799 1470.73 204.799C1500.81 204.799 1524.75 190.604 1547.91 176.846C1571.2 163.006 1595.36 148.69 1625.88 148.69V150.211C1595.8 150.211 1571.86 164.405 1548.7 178.154C1525.31 191.993 1501.19 206.309 1470.69 206.309Z" fill="white" fill-opacity="0.5"/>
<path d="M1470.69 196.11C1440.18 196.11 1416.06 181.794 1392.71 167.944C1369.56 154.206 1345.62 140.001 1315.54 140.001C1285.47 140.001 1261.52 154.196 1238.36 167.944C1225.97 175.305 1213.14 182.919 1199.48 188.293L1198.94 186.883C1212.48 181.55 1225.27 173.966 1237.61 166.606C1260.9 152.756 1285.06 138.45 1315.58 138.45C1346.1 138.45 1370.2 152.766 1393.55 166.606C1416.7 180.344 1440.64 194.559 1470.73 194.559C1500.81 194.559 1524.75 180.364 1547.91 166.606C1571.2 152.766 1595.36 138.45 1625.88 138.45V139.971C1595.8 139.971 1571.86 154.165 1548.7 167.914C1525.31 181.794 1501.19 196.11 1470.69 196.11Z" fill="white" fill-opacity="0.5"/>
<path d="M1470.69 185.9C1440.18 185.9 1416.06 171.584 1392.71 157.744C1369.56 144.006 1345.62 129.791 1315.54 129.791C1285.47 129.791 1261.52 143.986 1238.36 157.744C1225.97 165.075 1213.14 172.719 1199.48 178.093L1198.94 176.674C1212.48 171.351 1225.27 163.767 1237.61 156.396C1260.9 142.546 1285.06 128.23 1315.58 128.23C1346.1 128.23 1370.2 142.546 1393.55 156.396C1416.66 170.144 1440.6 184.339 1470.69 184.339C1500.77 184.339 1524.71 170.144 1547.87 156.396C1571.16 142.546 1595.32 128.23 1625.84 128.23V129.751C1595.75 129.751 1571.82 143.945 1548.66 157.704C1525.31 171.584 1501.19 185.9 1470.69 185.9Z" fill="white" fill-opacity="0.5"/>
<path d="M1470.69 175.7C1440.18 175.7 1416.06 161.384 1392.71 147.544C1369.56 133.806 1345.62 119.591 1315.54 119.591C1285.47 119.591 1261.52 133.786 1238.36 147.544C1225.97 154.936 1213.14 162.519 1199.48 167.893L1198.94 166.474C1212.48 161.151 1225.27 153.567 1237.61 146.196C1260.9 132.346 1285.06 118.03 1315.58 118.03C1346.1 118.03 1370.2 132.346 1393.55 146.196C1416.66 160.005 1440.6 174.199 1470.69 174.199C1500.77 174.199 1524.71 160.005 1547.87 146.257C1571.16 132.407 1595.32 118.091 1625.84 118.091V119.612C1595.75 119.612 1571.82 133.806 1548.66 147.565C1525.31 161.384 1501.19 175.7 1470.69 175.7Z" fill="white" fill-opacity="0.5"/>
<path d="M1470.69 165.5C1440.18 165.5 1416.06 151.184 1392.71 137.335C1369.56 123.596 1345.62 109.392 1315.54 109.392C1285.47 109.392 1261.52 123.586 1238.36 137.335C1225.97 144.706 1213.14 152.32 1199.48 157.693L1198.94 156.274C1212.48 150.941 1225.27 143.367 1237.61 135.996C1260.9 122.157 1285.06 107.841 1315.58 107.841C1346.1 107.841 1370.2 122.157 1393.55 135.996C1416.7 149.745 1440.64 163.949 1470.73 163.949C1500.81 163.949 1524.75 149.755 1547.91 135.996C1571.2 122.157 1595.36 107.841 1625.88 107.841V109.361C1595.8 109.361 1571.86 123.556 1548.7 137.304C1525.31 151.184 1501.19 165.5 1470.69 165.5Z" fill="white" fill-opacity="0.5"/>
<path d="M1470.69 155.301C1440.18 155.301 1416.06 140.985 1392.71 127.135C1369.58 113.366 1345.64 99.1718 1315.56 99.1718C1285.49 99.1718 1261.54 113.366 1238.38 127.115C1225.97 134.506 1213.14 142.11 1199.48 147.494L1198.94 146.074C1212.48 140.741 1225.27 133.157 1237.61 125.797C1260.9 111.957 1285.06 97.6409 1315.58 97.6409C1346.1 97.6409 1370.2 111.957 1393.55 125.797C1416.7 139.535 1440.64 153.749 1470.73 153.749C1500.81 153.749 1524.75 139.555 1547.91 125.797C1571.2 111.957 1595.36 97.6409 1625.88 97.6409V99.1718C1595.8 99.1718 1571.86 113.366 1548.7 127.115C1525.31 140.985 1501.19 155.301 1470.69 155.301Z" fill="white" fill-opacity="0.5"/>
<path d="M1470.69 145.101C1440.18 145.101 1416.06 130.785 1392.71 116.935C1369.58 103.227 1345.64 89.033 1315.56 89.033C1285.49 89.033 1261.54 103.227 1238.38 116.976C1225.97 124.296 1213.14 131.91 1199.48 137.284L1198.94 135.875C1212.48 130.542 1225.27 122.958 1237.61 115.597C1260.9 101.757 1285.06 87.4412 1315.58 87.4412C1346.1 87.4412 1370.2 101.757 1393.55 115.597C1416.7 129.335 1440.64 143.55 1470.73 143.55C1500.81 143.55 1524.75 129.355 1547.91 115.597C1571.2 101.757 1595.36 87.4412 1625.88 87.4412V89.033C1595.8 89.033 1571.86 103.227 1548.7 116.976C1525.31 130.785 1501.19 145.101 1470.69 145.101Z" fill="white" fill-opacity="0.5"/>
<path d="M1470.69 134.891C1440.18 134.891 1416.06 120.585 1392.71 106.735C1369.56 92.9972 1345.62 78.7824 1315.54 78.7824C1285.47 78.7824 1261.52 92.9769 1238.36 106.735C1225.97 114.096 1213.14 121.711 1199.48 127.084L1198.94 125.675C1212.48 120.342 1225.27 112.758 1237.61 105.397C1260.9 91.5473 1285.06 77.2312 1315.58 77.2312C1346.1 77.2312 1370.2 91.5473 1393.55 105.397C1416.7 119.135 1440.64 133.34 1470.73 133.34C1500.81 133.34 1524.75 119.145 1547.91 105.397C1571.2 91.5473 1595.36 77.2312 1625.88 77.2312V78.752C1595.8 78.752 1571.86 92.9465 1548.7 106.705C1525.31 120.585 1501.19 134.891 1470.69 134.891Z" fill="white" fill-opacity="0.5"/>
<path d="M1470.69 124.691C1440.18 124.691 1416.06 110.375 1392.71 96.5358C1369.56 82.7976 1345.62 68.5829 1315.54 68.5829C1285.47 68.5829 1261.52 82.7773 1238.36 96.5358C1225.97 103.897 1213.14 111.511 1199.48 116.885L1198.94 115.465C1212.48 110.142 1225.27 102.558 1237.61 95.1873C1260.9 81.3376 1285.06 67.0215 1315.58 67.0215C1346.1 67.0215 1370.2 81.3376 1393.55 95.1873C1416.7 108.926 1440.64 123.13 1470.73 123.13C1500.81 123.13 1524.75 108.936 1547.91 95.1873C1571.2 81.3376 1595.36 67.0215 1625.88 67.0215V68.5423C1595.8 68.5423 1571.86 82.7368 1548.7 96.4952C1525.31 110.375 1501.19 124.691 1470.69 124.691Z" fill="white" fill-opacity="0.5"/>
<path d="M1470.69 114.492C1440.18 114.492 1416.06 100.176 1392.71 86.3361C1369.56 72.5877 1345.62 58.3832 1315.54 58.3832C1285.47 58.3832 1261.52 72.5776 1238.36 86.3361C1225.97 93.6969 1213.14 101.311 1199.48 106.685L1198.94 105.255C1212.48 99.9323 1225.27 92.3484 1237.61 84.9775C1260.9 71.1379 1285.06 56.8218 1315.58 56.8218C1346.1 56.8218 1370.2 71.1379 1393.55 84.9876C1416.7 98.7258 1440.64 112.93 1470.73 112.93C1500.81 112.93 1524.75 98.7359 1547.91 84.9876C1571.2 71.1379 1595.36 56.8218 1625.88 56.8218V58.3426C1595.8 58.3426 1571.86 72.5371 1548.7 86.2955C1525.31 100.186 1501.19 114.492 1470.69 114.492Z" fill="white" fill-opacity="0.5"/>
<path d="M1470.69 104.292C1440.18 104.292 1416.06 89.9759 1392.71 76.1262C1369.56 62.388 1345.62 48.1834 1315.54 48.1834C1285.47 48.1834 1261.52 62.3779 1238.36 76.1262C1225.97 83.4972 1213.14 91.1115 1199.48 96.4851L1198.94 95.1163C1212.48 89.7833 1225.27 82.2095 1237.61 74.8386C1260.9 60.999 1285.06 46.6829 1315.58 46.6829C1346.1 46.6829 1370.2 60.999 1393.55 74.8386C1416.7 88.5869 1440.64 102.791 1470.73 102.791C1500.81 102.791 1524.75 88.597 1547.91 74.8386C1571.2 60.999 1595.36 46.6829 1625.88 46.6829V48.2037C1595.8 48.2037 1571.86 62.3981 1548.7 76.1465C1525.31 89.9759 1501.19 104.292 1470.69 104.292Z" fill="white" fill-opacity="0.5"/>
<path d="M1470.69 94.1024C1440.18 94.1024 1416.06 79.7863 1392.71 65.9365C1369.56 52.1983 1345.62 37.9938 1315.54 37.9938C1285.47 37.9938 1261.52 52.1882 1238.36 65.9365C1225.97 73.2872 1213.14 80.9218 1199.48 86.2752L1198.94 84.8658C1212.48 79.5328 1225.27 71.9489 1237.61 64.5881C1260.9 50.7485 1285.06 36.4324 1315.58 36.4324C1346.1 36.4324 1370.2 50.7485 1393.55 64.5881C1416.7 78.3263 1440.64 92.541 1470.73 92.541C1500.81 92.541 1524.75 78.3465 1547.91 64.5881C1571.2 50.7485 1595.36 36.4324 1625.88 36.4324V37.9532C1595.8 37.9532 1571.86 52.1477 1548.7 65.896C1525.31 79.7761 1501.19 94.1024 1470.69 94.1024Z" fill="white" fill-opacity="0.5"/>
<path d="M1470.69 83.8925C1440.18 83.8925 1416.06 69.5764 1392.71 55.7267C1369.56 41.9885 1345.62 27.7839 1315.54 27.7839C1285.47 27.7839 1261.52 41.9784 1238.36 55.7267C1225.97 63.0875 1213.14 70.7018 1199.48 76.0754L1198.94 74.6661C1212.48 69.3331 1225.27 61.7492 1237.61 54.3884C1260.9 40.5488 1285.06 26.2327 1315.58 26.2327C1346.1 26.2327 1370.2 40.5488 1393.55 54.3884C1416.7 68.1266 1440.64 82.3413 1470.73 82.3413C1500.81 82.3413 1524.75 68.1468 1547.91 54.3884C1571.2 40.5488 1595.36 26.2327 1625.88 26.2327V27.7535C1595.8 27.7535 1571.86 41.9479 1548.7 55.6963C1525.31 69.5764 1501.19 83.8925 1470.69 83.8925Z" fill="white" fill-opacity="0.5"/>
<path d="M1470.69 73.6826C1440.18 73.6826 1416.06 59.3665 1392.71 45.5269C1369.56 31.7887 1345.62 17.574 1315.54 17.574C1285.47 17.574 1261.52 31.7684 1238.36 45.5269C1225.97 52.8877 1213.14 60.502 1199.48 65.8756L1198.94 64.4663C1212.48 59.1333 1225.27 51.5494 1237.61 44.1885C1260.9 30.3388 1285.06 16.0227 1315.58 16.0227C1346.1 16.0227 1370.2 30.3388 1393.55 44.1885C1416.7 57.9267 1440.64 72.1313 1470.73 72.1313C1500.81 72.1313 1524.75 57.9369 1547.91 44.1885C1571.2 30.3388 1595.36 16.0227 1625.88 16.0227V17.5435C1595.8 17.5435 1571.86 31.738 1548.7 45.4965C1525.31 59.3665 1501.19 73.6826 1470.69 73.6826Z" fill="white" fill-opacity="0.5"/>
<path d="M1470.69 63.483C1440.18 63.483 1416.06 49.1669 1392.71 35.3273C1369.56 21.5891 1345.62 7.37438 1315.54 7.37438C1285.47 7.37438 1261.54 21.5891 1238.38 35.2969C1225.97 42.6881 1213.14 50.3024 1199.48 55.676L1198.94 54.2566C1212.48 48.9337 1225.27 41.3498 1237.61 33.9788C1260.9 20.1291 1285.06 5.81299 1315.58 5.81299C1346.1 5.81299 1370.2 20.1291 1393.55 33.9788C1416.7 47.717 1440.64 61.9216 1470.73 61.9216C1500.81 61.9216 1524.75 47.7272 1547.91 33.9788C1571.2 20.1291 1595.36 5.81299 1625.88 5.81299V7.33382C1595.8 7.33382 1571.86 21.5283 1548.7 35.2867C1525.31 49.1669 1501.19 63.483 1470.69 63.483Z" fill="white" fill-opacity="0.5"/>
<path d="M1470.69 53.2832C1440.18 53.2832 1416.06 38.9671 1392.71 25.1276C1369.58 11.3792 1345.64 -2.82536 1315.56 -2.82536C1285.49 -2.82536 1261.54 11.3792 1238.38 25.158C1225.97 32.4884 1213.14 40.1027 1199.48 45.4357L1198.94 44.0163C1212.48 38.6934 1225.27 31.1095 1237.61 23.7385C1260.94 9.94964 1285.06 -4.34619 1315.56 -4.34619C1346.06 -4.34619 1370.18 9.96992 1393.53 23.8196C1416.68 37.5578 1440.62 51.7624 1470.71 51.7624C1500.79 51.7624 1524.73 37.568 1547.89 23.8196C1571.18 9.96992 1595.34 -4.34619 1625.86 -4.34619V-2.82536C1595.77 -2.82536 1571.84 11.3691 1548.68 25.1276C1525.31 38.9671 1501.19 53.2832 1470.69 53.2832Z" fill="white" fill-opacity="0.5"/>
<path d="M1470.69 43.0834C1440.18 43.0834 1416.06 28.7673 1392.71 14.9176C1369.58 1.1794 1345.64 -13.0252 1315.56 -13.0252C1285.49 -13.0252 1261.54 1.16926 1238.38 14.9176C1225.97 22.2886 1213.14 29.9029 1199.48 35.2968L1198.94 33.8773C1212.48 28.5443 1225.27 20.9705 1237.61 13.5995C1260.9 -0.24004 1285.06 -14.5562 1315.58 -14.5562C1346.1 -14.5562 1370.2 -0.24004 1393.55 13.5995C1416.7 27.3479 1440.64 41.5525 1470.73 41.5525C1500.81 41.5525 1524.75 27.358 1547.91 13.5995C1571.2 -0.24004 1595.36 -14.5562 1625.88 -14.5562V-13.0353C1595.8 -13.0353 1571.86 1.15913 1548.7 14.9075C1525.31 28.7673 1501.19 43.0834 1470.69 43.0834Z" fill="white" fill-opacity="0.5"/>
<path d="M1470.69 32.8837C1440.18 32.8837 1416.06 18.5676 1392.71 4.7179C1369.58 -9.02029 1345.64 -23.2249 1315.56 -23.2249C1285.49 -23.2249 1261.54 -9.02029 1238.38 4.7179C1225.97 12.0787 1213.14 19.693 1199.48 25.0667L1198.94 23.6573C1212.48 18.3243 1225.27 10.7404 1237.61 3.37957C1260.9 -10.46 1285.06 -24.7761 1315.58 -24.7761C1346.1 -24.7761 1370.2 -10.46 1393.55 3.37957C1416.7 17.1178 1440.64 31.3325 1470.73 31.3325C1500.81 31.3325 1524.75 17.138 1547.91 3.37957C1571.2 -10.46 1595.36 -24.7761 1625.88 -24.7761V-23.2553C1595.8 -23.2553 1571.86 -9.06085 1548.7 4.68749C1525.31 18.5676 1501.19 32.8837 1470.69 32.8837Z" fill="white" fill-opacity="0.5"/>
<path d="M1470.69 22.684C1440.18 22.684 1416.06 8.35778 1392.71 -5.4818C1380.3 -12.8629 1367.44 -20.4671 1353.8 -25.8306L1354.34 -27.25C1368.11 -21.8662 1381.02 -14.2012 1393.5 -6.78972C1416.66 6.90792 1440.6 21.1632 1470.69 21.1632C1500.77 21.1632 1524.71 6.96875 1547.87 -6.78972C1560.35 -14.2012 1573.26 -21.8662 1587.08 -27.25L1587.63 -25.8306C1573.91 -20.4671 1561.07 -12.8629 1548.6 -5.4818C1525.31 8.36792 1501.19 22.684 1470.69 22.684Z" fill="white" fill-opacity="0.5"/>
<path d="M1199.48 14.8669L1198.94 13.4576C1212.48 8.12459 1225.27 0.540697 1237.61 -6.82014C1249.95 -14.181 1263.04 -21.8662 1276.77 -27.25L1277.32 -25.8306C1263.67 -20.4671 1250.81 -12.8629 1238.38 -5.4818C1225.94 1.89931 1213.14 9.49334 1199.48 14.8669Z" fill="white" fill-opacity="0.5"/>
<path d="M1470.69 12.4741C1440.18 12.4741 1416.06 -1.84198 1392.71 -15.6816C1386.97 -19.0984 1381.03 -22.6166 1375.08 -25.8204L1375.81 -27.1588C1381.78 -23.8941 1387.73 -20.3556 1393.49 -16.9388C1416.66 -3.231 1440.6 10.9634 1470.69 10.9634C1500.77 10.9634 1524.71 -3.231 1547.87 -16.9895C1553.62 -20.4063 1559.57 -23.9448 1565.54 -27.2095L1566.27 -25.8711C1560.32 -22.6166 1554.39 -19.0882 1548.64 -15.7323C1525.31 -1.84197 1501.19 12.4741 1470.69 12.4741Z" fill="white" fill-opacity="0.5"/>
<path d="M1199.48 4.66722L1198.94 3.24778C1212.48 -2.07514 1225.27 -9.65903 1237.6 -17.03C1243.36 -20.4468 1249.31 -23.9853 1255.28 -27.25L1256.01 -25.9117C1250.06 -22.6571 1244.12 -19.1287 1238.38 -15.7728C1225.97 -8.30042 1213.14 -0.70639 1199.48 4.66722Z" fill="white" fill-opacity="0.5"/>
<path d="M1470.69 2.2744C1440.18 2.2744 1416.06 -12.0417 1392.71 -25.8813L1393.49 -27.1892C1416.64 -13.451 1440.58 0.753567 1470.66 0.753567C1500.75 0.753567 1524.69 -13.4409 1547.84 -27.1892L1548.62 -25.8813C1525.31 -12.0417 1501.19 2.2744 1470.69 2.2744Z" fill="white" fill-opacity="0.5"/>
</g>
<g clip-path="url(#clip1_305_2007)">
<path d="M899.992 300.561C876.843 286.822 852.894 272.618 822.819 272.618C792.744 272.618 768.796 286.812 745.637 300.561L744.867 299.253C768.158 285.413 792.319 271.097 822.84 271.097C853.36 271.097 877.461 285.413 900.812 299.253L899.992 300.561Z" fill="white" fill-opacity="0.5"/>
<path d="M589.733 300.561C566.574 286.822 542.636 272.618 512.561 272.618C482.486 272.618 458.537 286.812 435.378 300.561L434.609 299.253C457.899 285.413 482.061 271.097 512.581 271.097C543.102 271.097 567.192 285.413 590.553 299.253L589.733 300.561Z" fill="white" fill-opacity="0.5"/>
<path d="M917.662 300.581C911.708 297.316 905.754 293.778 899.992 290.361C876.843 276.602 852.935 262.408 822.82 262.408C792.704 262.408 768.796 276.602 745.597 290.361C739.845 293.778 733.891 297.316 727.926 300.581L727.197 299.242C733.131 295.988 739.075 292.46 744.827 289.053C768.117 275.213 792.279 260.897 822.799 260.897C853.32 260.897 877.42 275.213 900.772 289.053C906.513 292.47 912.457 295.988 918.391 299.242L917.662 300.581Z" fill="white" fill-opacity="0.5"/>
<path d="M607.404 300.581C601.449 297.316 595.495 293.778 589.733 290.361C566.585 276.602 542.636 262.408 512.561 262.408C482.486 262.408 458.537 276.602 435.379 290.351C429.627 293.768 423.673 297.306 417.708 300.571L416.979 299.232C422.913 295.978 428.857 292.45 434.609 289.043C457.899 275.203 482.061 260.887 512.581 260.887C543.102 260.887 567.202 275.203 590.554 289.043C596.295 292.45 602.239 295.978 608.173 299.232L607.404 300.581Z" fill="white" fill-opacity="0.5"/>
<path d="M939.15 300.621C925.398 295.238 912.488 287.573 900.002 280.161C876.843 266.463 852.935 252.269 822.819 252.269C792.704 252.269 768.796 266.463 745.597 280.161C733.111 287.573 720.19 295.238 706.438 300.621L705.881 299.202C719.562 293.838 732.432 286.234 744.867 278.853C768.158 265.003 792.319 250.698 822.84 250.698C853.36 250.698 877.461 265.014 900.812 278.853C913.247 286.234 926.128 293.869 939.747 299.202L939.15 300.621Z" fill="white" fill-opacity="0.5"/>
<path d="M628.902 300.621C615.14 295.238 602.229 287.573 589.733 280.161C566.585 266.463 542.636 252.269 512.561 252.269C482.486 252.269 458.537 266.463 435.379 280.212C422.974 287.522 410.144 295.136 396.484 300.51L395.937 299.1C409.476 293.767 422.265 286.184 434.609 278.823C457.899 264.973 482.061 250.667 512.581 250.667C543.102 250.667 567.202 264.983 590.553 278.823C602.988 286.204 615.869 293.838 629.489 299.171L628.902 300.621Z" fill="white" fill-opacity="0.5"/>
<path d="M667.685 298.117C637.185 298.117 613.064 283.801 589.713 269.961C566.564 256.223 542.616 242.008 512.541 242.008C482.466 242.008 458.517 256.203 435.358 269.961C422.974 277.322 410.144 284.936 396.484 290.31L395.937 288.891C409.476 283.568 422.265 275.984 434.609 268.613C457.899 254.763 482.061 240.447 512.581 240.447C543.102 240.447 567.202 254.763 590.553 268.613C613.702 282.351 637.641 296.556 667.726 296.556C697.811 296.556 721.749 282.361 744.908 268.613C768.198 254.763 792.36 240.447 822.88 240.447V241.968C792.795 241.968 768.857 256.162 745.698 269.921C722.306 283.801 698.185 298.117 667.685 298.117Z" fill="white" fill-opacity="0.5"/>
<path d="M667.685 287.917C637.185 287.917 613.064 273.601 589.713 259.762C566.564 246.013 542.616 231.809 512.541 231.809C482.466 231.809 458.517 246.003 435.358 259.762C422.974 267.122 410.144 274.737 396.484 280.11L395.937 278.691C409.476 273.368 422.265 265.784 434.609 258.413C457.899 244.563 482.061 230.247 512.581 230.247C543.102 230.247 567.202 244.563 590.553 258.413C613.702 272.151 637.641 286.356 667.726 286.356C697.811 286.356 721.749 272.161 744.908 258.413C768.198 244.563 792.36 230.247 822.88 230.247V231.768C792.795 231.768 768.857 245.963 745.698 259.721C722.306 273.561 698.185 287.917 667.685 287.917Z" fill="white" fill-opacity="0.5"/>
<path d="M667.685 277.718C637.185 277.718 613.064 263.402 589.713 249.562C566.564 235.814 542.616 221.609 512.541 221.609C482.466 221.609 458.517 235.804 435.358 249.552C422.974 256.923 410.144 264.537 396.484 269.911L395.937 268.491C409.476 263.158 422.265 255.585 434.609 248.214C457.899 234.374 482.061 220.058 512.581 220.058C543.102 220.058 567.202 234.374 590.553 248.214C613.702 261.962 637.641 276.166 667.726 276.166C697.811 276.166 721.749 261.972 744.908 248.214C768.198 234.374 792.36 220.058 822.88 220.058V221.579C792.795 221.579 768.857 235.773 745.698 249.532C722.306 263.422 698.185 277.718 667.685 277.718Z" fill="white" fill-opacity="0.5"/>
<path d="M667.685 267.477C637.185 267.477 613.064 253.161 589.713 239.312C566.564 225.573 542.616 211.369 512.541 211.369C482.466 211.369 458.517 225.563 435.358 239.312C422.974 246.713 410.144 254.297 396.484 259.701L395.937 258.292C409.476 252.959 422.265 245.375 434.609 238.014C457.899 224.174 482.061 209.858 512.581 209.858C543.102 209.858 567.202 224.174 590.553 238.014C613.702 251.752 637.641 265.967 667.726 265.967C697.811 265.967 721.749 251.772 744.908 238.014C768.198 224.174 792.36 209.858 822.88 209.858V211.379C792.795 211.379 768.857 225.573 745.698 239.322C722.306 253.202 698.185 267.477 667.685 267.477Z" fill="white" fill-opacity="0.5"/>
<path d="M667.685 257.339C637.185 257.339 613.064 243.022 589.713 229.173C566.564 215.435 542.616 201.23 512.541 201.23C482.466 201.23 458.517 215.424 435.358 229.173C422.974 236.513 410.144 244.158 396.484 249.501L395.937 248.092C409.476 242.759 422.265 235.175 434.609 227.814C457.899 213.975 482.061 199.658 512.581 199.658C543.102 199.658 567.202 213.975 590.553 227.814C613.702 241.552 637.641 255.767 667.726 255.767C697.811 255.767 721.749 241.573 744.908 227.814C768.198 213.975 792.36 199.658 822.88 199.658V201.179C792.795 201.179 768.857 215.374 745.698 229.122C722.306 243.002 698.185 257.339 667.685 257.339Z" fill="white" fill-opacity="0.5"/>
<path d="M667.685 247.108C637.185 247.108 613.064 232.792 589.713 218.953C566.564 205.214 542.616 191 512.541 191C482.466 191 458.517 205.194 435.358 218.953C422.974 226.313 410.144 233.928 396.484 239.301L395.937 237.892C409.476 232.559 422.265 224.975 434.609 217.614C457.899 203.765 482.061 189.448 512.581 189.448C543.102 189.448 567.202 203.765 590.553 217.614C613.702 231.353 637.641 245.557 667.726 245.557C697.811 245.557 721.749 231.363 744.908 217.614C768.198 203.765 792.36 189.448 822.88 189.448V190.969C792.795 190.969 768.857 205.164 745.698 218.922C722.306 232.792 698.185 247.108 667.685 247.108Z" fill="white" fill-opacity="0.5"/>
<path d="M667.685 236.909C637.185 236.909 613.064 222.592 589.713 208.753C566.564 195.015 542.616 180.8 512.541 180.8C482.466 180.8 458.517 194.994 435.358 208.753C422.974 216.114 410.144 223.728 396.484 229.102L395.937 227.682C409.476 222.359 422.265 214.775 434.609 207.404C457.899 193.555 482.061 179.239 512.581 179.239C543.102 179.239 567.202 193.555 590.553 207.404C613.702 221.143 637.641 235.347 667.726 235.347C697.811 235.347 721.749 221.153 744.908 207.404C768.198 193.555 792.36 179.239 822.88 179.239V180.759C792.795 180.759 768.857 194.954 745.698 208.712C722.306 222.592 698.185 236.909 667.685 236.909Z" fill="white" fill-opacity="0.5"/>
<path d="M667.685 226.709C637.185 226.709 613.064 212.393 589.713 198.553C566.564 184.805 542.616 170.6 512.541 170.6C482.466 170.6 458.517 184.795 435.358 198.553C422.974 205.914 410.144 213.528 396.484 218.902L395.937 217.483C409.476 212.149 422.265 204.576 434.609 197.205C457.899 183.365 482.061 169.049 512.581 169.049C543.102 169.049 567.202 183.365 590.553 197.205C613.702 210.953 637.641 225.158 667.726 225.158C697.811 225.158 721.749 210.963 744.908 197.205C768.198 183.365 792.36 169.049 822.88 169.049V170.57C792.795 170.57 768.857 184.764 745.698 198.523C722.306 212.393 698.185 226.709 667.685 226.709Z" fill="white" fill-opacity="0.5"/>
<path d="M667.685 216.509C637.185 216.509 613.064 202.193 589.713 188.343C566.564 174.605 542.616 160.401 512.541 160.401C482.466 160.401 458.537 174.605 435.379 188.394C422.974 195.714 410.144 203.329 396.484 208.672L395.937 207.252C409.476 201.919 422.265 194.335 434.609 186.975C457.899 173.135 482.061 158.819 512.581 158.819C543.102 158.819 567.202 173.135 590.553 186.975C613.702 200.723 637.641 214.927 667.726 214.927C697.811 214.927 721.749 200.733 744.908 186.975C768.198 173.135 792.36 158.819 822.88 158.819V160.34C792.795 160.34 768.857 174.534 745.698 188.282C722.306 202.193 698.185 216.509 667.685 216.509Z" fill="white" fill-opacity="0.5"/>
<path d="M667.685 206.309C637.185 206.309 613.064 191.993 589.713 178.144C566.564 164.405 542.616 150.201 512.541 150.201C482.466 150.201 458.517 164.395 435.358 178.144C422.974 185.504 410.144 193.119 396.484 198.533L395.937 197.124C409.476 191.791 422.265 184.207 434.609 176.846C457.899 163.006 482.061 148.69 512.581 148.69C543.102 148.69 567.202 163.006 590.553 176.846C613.702 190.584 637.641 204.799 667.726 204.799C697.811 204.799 721.749 190.604 744.908 176.846C768.198 163.006 792.36 148.69 822.88 148.69V150.211C792.795 150.211 768.857 164.405 745.698 178.154C722.306 191.993 698.185 206.309 667.685 206.309Z" fill="white" fill-opacity="0.5"/>
<path d="M667.685 196.11C637.185 196.11 613.064 181.794 589.713 167.944C566.564 154.206 542.616 140.001 512.541 140.001C482.466 140.001 458.517 154.196 435.358 167.944C422.974 175.305 410.144 182.919 396.484 188.293L395.937 186.883C409.476 181.55 422.265 173.966 434.609 166.606C457.899 152.756 482.061 138.45 512.581 138.45C543.102 138.45 567.202 152.766 590.553 166.606C613.702 180.344 637.641 194.559 667.726 194.559C697.811 194.559 721.749 180.364 744.908 166.606C768.198 152.766 792.36 138.45 822.88 138.45V139.971C792.795 139.971 768.857 154.165 745.698 167.914C722.306 181.794 698.185 196.11 667.685 196.11Z" fill="white" fill-opacity="0.5"/>
<path d="M667.685 185.9C637.185 185.9 613.064 171.584 589.713 157.744C566.564 144.006 542.616 129.791 512.541 129.791C482.466 129.791 458.517 143.986 435.358 157.744C422.974 165.075 410.144 172.719 396.484 178.093L395.937 176.674C409.476 171.351 422.265 163.767 434.609 156.396C457.899 142.546 482.061 128.23 512.581 128.23C543.102 128.23 567.202 142.546 590.553 156.396C613.662 170.144 637.6 184.339 667.685 184.339C697.77 184.339 721.709 170.144 744.868 156.396C768.158 142.546 792.319 128.23 822.84 128.23V129.751C792.755 129.751 768.816 143.945 745.657 157.704C722.306 171.584 698.185 185.9 667.685 185.9Z" fill="white" fill-opacity="0.5"/>
<path d="M667.685 175.7C637.185 175.7 613.064 161.384 589.713 147.544C566.564 133.806 542.616 119.591 512.541 119.591C482.466 119.591 458.517 133.786 435.358 147.544C422.974 154.936 410.144 162.519 396.484 167.893L395.937 166.474C409.476 161.151 422.265 153.567 434.609 146.196C457.899 132.346 482.061 118.03 512.581 118.03C543.102 118.03 567.202 132.346 590.553 146.196C613.662 160.005 637.6 174.199 667.685 174.199C697.77 174.199 721.709 160.005 744.868 146.257C768.158 132.407 792.319 118.091 822.84 118.091V119.612C792.755 119.612 768.816 133.806 745.657 147.565C722.306 161.384 698.185 175.7 667.685 175.7Z" fill="white" fill-opacity="0.5"/>
<path d="M667.685 165.5C637.185 165.5 613.064 151.184 589.713 137.335C566.564 123.596 542.616 109.392 512.541 109.392C482.466 109.392 458.517 123.586 435.358 137.335C422.974 144.706 410.144 152.32 396.484 157.693L395.937 156.274C409.476 150.941 422.265 143.367 434.609 135.996C457.899 122.157 482.061 107.841 512.581 107.841C543.102 107.841 567.202 122.157 590.553 135.996C613.702 149.745 637.641 163.949 667.726 163.949C697.811 163.949 721.749 149.755 744.908 135.996C768.198 122.157 792.36 107.841 822.88 107.841V109.361C792.795 109.361 768.857 123.556 745.698 137.304C722.306 151.184 698.185 165.5 667.685 165.5Z" fill="white" fill-opacity="0.5"/>
<path d="M667.685 155.301C637.185 155.301 613.064 140.985 589.713 127.135C566.585 113.366 542.636 99.1718 512.561 99.1718C482.486 99.1718 458.537 113.366 435.379 127.115C422.974 134.506 410.144 142.11 396.484 147.494L395.937 146.074C409.476 140.741 422.265 133.157 434.609 125.797C457.899 111.957 482.061 97.6409 512.581 97.6409C543.102 97.6409 567.202 111.957 590.553 125.797C613.702 139.535 637.641 153.749 667.726 153.749C697.811 153.749 721.749 139.555 744.908 125.797C768.198 111.957 792.36 97.6409 822.88 97.6409V99.1718C792.795 99.1718 768.857 113.366 745.698 127.115C722.306 140.985 698.185 155.301 667.685 155.301Z" fill="white" fill-opacity="0.5"/>
<path d="M667.685 145.101C637.185 145.101 613.064 130.785 589.713 116.935C566.585 103.227 542.636 89.033 512.561 89.033C482.486 89.033 458.537 103.227 435.379 116.976C422.974 124.296 410.144 131.91 396.484 137.284L395.937 135.875C409.476 130.542 422.265 122.958 434.609 115.597C457.899 101.757 482.061 87.4412 512.581 87.4412C543.102 87.4412 567.202 101.757 590.553 115.597C613.702 129.335 637.641 143.55 667.726 143.55C697.811 143.55 721.749 129.355 744.908 115.597C768.198 101.757 792.36 87.4412 822.88 87.4412V89.033C792.795 89.033 768.857 103.227 745.698 116.976C722.306 130.785 698.185 145.101 667.685 145.101Z" fill="white" fill-opacity="0.5"/>
<path d="M667.685 134.891C637.185 134.891 613.064 120.585 589.713 106.735C566.564 92.9972 542.616 78.7824 512.541 78.7824C482.466 78.7824 458.517 92.9769 435.358 106.735C422.974 114.096 410.144 121.711 396.484 127.084L395.937 125.675C409.476 120.342 422.265 112.758 434.609 105.397C457.899 91.5473 482.061 77.2312 512.581 77.2312C543.102 77.2312 567.202 91.5473 590.553 105.397C613.702 119.135 637.641 133.34 667.726 133.34C697.811 133.34 721.749 119.145 744.908 105.397C768.198 91.5473 792.36 77.2312 822.88 77.2312V78.752C792.795 78.752 768.857 92.9465 745.698 106.705C722.306 120.585 698.185 134.891 667.685 134.891Z" fill="white" fill-opacity="0.5"/>
<path d="M667.685 124.691C637.185 124.691 613.064 110.375 589.713 96.5358C566.564 82.7976 542.616 68.5829 512.541 68.5829C482.466 68.5829 458.517 82.7773 435.358 96.5358C422.974 103.897 410.144 111.511 396.484 116.885L395.937 115.465C409.476 110.142 422.265 102.558 434.609 95.1873C457.899 81.3376 482.061 67.0215 512.581 67.0215C543.102 67.0215 567.202 81.3376 590.553 95.1873C613.702 108.926 637.641 123.13 667.726 123.13C697.811 123.13 721.749 108.936 744.908 95.1873C768.198 81.3376 792.36 67.0215 822.88 67.0215V68.5423C792.795 68.5423 768.857 82.7368 745.698 96.4952C722.306 110.375 698.185 124.691 667.685 124.691Z" fill="white" fill-opacity="0.5"/>
<path d="M667.685 114.492C637.185 114.492 613.064 100.176 589.713 86.3361C566.564 72.5877 542.616 58.3832 512.541 58.3832C482.466 58.3832 458.517 72.5776 435.358 86.3361C422.974 93.6969 410.144 101.311 396.484 106.685L395.937 105.255C409.476 99.9323 422.265 92.3484 434.609 84.9775C457.899 71.1379 482.061 56.8218 512.581 56.8218C543.102 56.8218 567.202 71.1379 590.553 84.9876C613.702 98.7258 637.641 112.93 667.726 112.93C697.811 112.93 721.749 98.7359 744.908 84.9876C768.198 71.1379 792.36 56.8218 822.88 56.8218V58.3426C792.795 58.3426 768.857 72.5371 745.698 86.2955C722.306 100.186 698.185 114.492 667.685 114.492Z" fill="white" fill-opacity="0.5"/>
<path d="M667.685 104.292C637.185 104.292 613.064 89.9759 589.713 76.1262C566.564 62.388 542.616 48.1834 512.541 48.1834C482.466 48.1834 458.517 62.3779 435.358 76.1262C422.974 83.4972 410.144 91.1115 396.484 96.4851L395.937 95.1163C409.476 89.7833 422.265 82.2095 434.609 74.8386C457.899 60.999 482.061 46.6829 512.581 46.6829C543.102 46.6829 567.202 60.999 590.553 74.8386C613.702 88.5869 637.641 102.791 667.726 102.791C697.811 102.791 721.749 88.597 744.908 74.8386C768.198 60.999 792.36 46.6829 822.88 46.6829V48.2037C792.795 48.2037 768.857 62.3981 745.698 76.1465C722.306 89.9759 698.185 104.292 667.685 104.292Z" fill="white" fill-opacity="0.5"/>
<path d="M667.685 94.1024C637.185 94.1024 613.064 79.7863 589.713 65.9365C566.564 52.1983 542.616 37.9938 512.541 37.9938C482.466 37.9938 458.517 52.1882 435.358 65.9365C422.974 73.2872 410.144 80.9218 396.484 86.2752L395.937 84.8658C409.476 79.5328 422.265 71.9489 434.609 64.5881C457.899 50.7485 482.061 36.4324 512.581 36.4324C543.102 36.4324 567.202 50.7485 590.553 64.5881C613.702 78.3263 637.641 92.541 667.726 92.541C697.811 92.541 721.749 78.3465 744.908 64.5881C768.198 50.7485 792.36 36.4324 822.88 36.4324V37.9532C792.795 37.9532 768.857 52.1477 745.698 65.896C722.306 79.7761 698.185 94.1024 667.685 94.1024Z" fill="white" fill-opacity="0.5"/>
<path d="M667.685 83.8925C637.185 83.8925 613.064 69.5764 589.713 55.7267C566.564 41.9885 542.616 27.7839 512.541 27.7839C482.466 27.7839 458.517 41.9784 435.358 55.7267C422.974 63.0875 410.144 70.7018 396.484 76.0754L395.937 74.6661C409.476 69.3331 422.265 61.7492 434.609 54.3884C457.899 40.5488 482.061 26.2327 512.581 26.2327C543.102 26.2327 567.202 40.5488 590.553 54.3884C613.702 68.1266 637.641 82.3413 667.726 82.3413C697.811 82.3413 721.749 68.1468 744.908 54.3884C768.198 40.5488 792.36 26.2327 822.88 26.2327V27.7535C792.795 27.7535 768.857 41.9479 745.698 55.6963C722.306 69.5764 698.185 83.8925 667.685 83.8925Z" fill="white" fill-opacity="0.5"/>
<path d="M667.685 73.6826C637.185 73.6826 613.064 59.3665 589.713 45.5269C566.564 31.7887 542.616 17.574 512.541 17.574C482.466 17.574 458.517 31.7684 435.358 45.5269C422.974 52.8877 410.144 60.502 396.484 65.8756L395.937 64.4663C409.476 59.1333 422.265 51.5494 434.609 44.1885C457.899 30.3388 482.061 16.0227 512.581 16.0227C543.102 16.0227 567.202 30.3388 590.553 44.1885C613.702 57.9267 637.641 72.1313 667.726 72.1313C697.811 72.1313 721.749 57.9369 744.908 44.1885C768.198 30.3388 792.36 16.0227 822.88 16.0227V17.5435C792.795 17.5435 768.857 31.738 745.698 45.4965C722.306 59.3665 698.185 73.6826 667.685 73.6826Z" fill="white" fill-opacity="0.5"/>
<path d="M667.685 63.483C637.185 63.483 613.064 49.1669 589.713 35.3273C566.564 21.5891 542.616 7.37438 512.541 7.37438C482.466 7.37438 458.537 21.5891 435.379 35.2969C422.974 42.6881 410.144 50.3024 396.484 55.676L395.937 54.2566C409.476 48.9337 422.265 41.3498 434.609 33.9788C457.899 20.1291 482.061 5.81299 512.581 5.81299C543.102 5.81299 567.202 20.1291 590.553 33.9788C613.702 47.717 637.641 61.9216 667.726 61.9216C697.811 61.9216 721.749 47.7272 744.908 33.9788C768.198 20.1291 792.36 5.81299 822.88 5.81299V7.33382C792.795 7.33382 768.857 21.5283 745.698 35.2867C722.306 49.1669 698.185 63.483 667.685 63.483Z" fill="white" fill-opacity="0.5"/>
<path d="M667.685 53.2832C637.185 53.2832 613.064 38.9671 589.713 25.1276C566.585 11.3792 542.636 -2.82536 512.561 -2.82536C482.486 -2.82536 458.537 11.3792 435.379 25.158C422.974 32.4884 410.144 40.1027 396.484 45.4357L395.937 44.0163C409.476 38.6934 422.265 31.1095 434.609 23.7385C457.94 9.94964 482.061 -4.34619 512.561 -4.34619C543.061 -4.34619 567.182 9.96992 590.533 23.8196C613.682 37.5578 637.62 51.7624 667.705 51.7624C697.79 51.7624 721.729 37.568 744.888 23.8196C768.178 9.96992 792.339 -4.34619 822.86 -4.34619V-2.82536C792.775 -2.82536 768.836 11.3691 745.678 25.1276C722.306 38.9671 698.185 53.2832 667.685 53.2832Z" fill="white" fill-opacity="0.5"/>
<path d="M667.685 43.0834C637.185 43.0834 613.064 28.7673 589.713 14.9176C566.585 1.1794 542.636 -13.0252 512.561 -13.0252C482.486 -13.0252 458.537 1.16926 435.379 14.9176C422.974 22.2886 410.144 29.9029 396.484 35.2968L395.937 33.8773C409.476 28.5443 422.265 20.9705 434.609 13.5995C457.899 -0.24004 482.061 -14.5562 512.581 -14.5562C543.102 -14.5562 567.202 -0.24004 590.553 13.5995C613.702 27.3479 637.641 41.5525 667.726 41.5525C697.811 41.5525 721.749 27.358 744.908 13.5995C768.198 -0.24004 792.36 -14.5562 822.88 -14.5562V-13.0353C792.795 -13.0353 768.857 1.15913 745.698 14.9075C722.306 28.7673 698.185 43.0834 667.685 43.0834Z" fill="white" fill-opacity="0.5"/>
<path d="M667.685 32.8837C637.185 32.8837 613.064 18.5676 589.713 4.7179C566.585 -9.02029 542.636 -23.2249 512.561 -23.2249C482.486 -23.2249 458.537 -9.02029 435.379 4.7179C422.974 12.0787 410.144 19.693 396.484 25.0667L395.937 23.6573C409.476 18.3243 422.265 10.7404 434.609 3.37957C457.899 -10.46 482.061 -24.7761 512.581 -24.7761C543.102 -24.7761 567.202 -10.46 590.553 3.37957C613.702 17.1178 637.641 31.3325 667.726 31.3325C697.811 31.3325 721.749 17.138 744.908 3.37957C768.198 -10.46 792.36 -24.7761 822.88 -24.7761V-23.2553C792.795 -23.2553 768.857 -9.06085 745.698 4.68749C722.306 18.5676 698.185 32.8837 667.685 32.8837Z" fill="white" fill-opacity="0.5"/>
<path d="M667.685 22.684C637.185 22.684 613.064 8.35778 589.713 -5.4818C577.298 -12.8629 564.438 -20.4671 550.798 -25.8306L551.344 -27.25C565.106 -21.8662 578.017 -14.2012 590.503 -6.78972C613.661 6.90792 637.6 21.1632 667.685 21.1632C697.77 21.1632 721.709 6.96875 744.867 -6.78972C757.353 -14.2012 770.264 -21.8662 784.076 -27.25L784.633 -25.8306C770.912 -20.4671 758.072 -12.8629 745.597 -5.4818C722.306 8.36792 698.185 22.684 667.685 22.684Z" fill="white" fill-opacity="0.5"/>
<path d="M396.484 14.8669L395.937 13.4576C409.476 8.12459 422.265 0.540697 434.609 -6.82014C446.953 -14.181 460.036 -21.8662 473.767 -27.25L474.324 -25.8306C460.674 -20.4671 447.814 -12.8629 435.379 -5.4818C422.944 1.89931 410.144 9.49334 396.484 14.8669Z" fill="white" fill-opacity="0.5"/>
<path d="M667.685 12.4741C637.185 12.4741 613.064 -1.84198 589.713 -15.6816C583.971 -19.0984 578.027 -22.6166 572.083 -25.8204L572.812 -27.1588C578.776 -23.8941 584.731 -20.3556 590.493 -16.9388C613.661 -3.231 637.6 10.9634 667.685 10.9634C697.77 10.9634 721.709 -3.231 744.867 -16.9895C750.619 -20.4063 756.573 -23.9448 762.538 -27.2095L763.267 -25.8711C757.323 -22.6166 751.389 -19.0882 745.637 -15.7323C722.306 -1.84197 698.185 12.4741 667.685 12.4741Z" fill="white" fill-opacity="0.5"/>
<path d="M396.484 4.66722L395.937 3.24778C409.476 -2.07514 422.265 -9.65903 434.599 -17.03C440.361 -20.4468 446.315 -23.9853 452.279 -27.25L453.008 -25.9117C447.064 -22.6571 441.12 -19.1287 435.379 -15.7728C422.974 -8.30042 410.144 -0.70639 396.484 4.66722Z" fill="white" fill-opacity="0.5"/>
<path d="M667.685 2.2744C637.185 2.2744 613.064 -12.0417 589.713 -25.8813L590.493 -27.1892C613.641 -13.451 637.58 0.753567 667.665 0.753567C697.75 0.753567 721.688 -13.4409 744.837 -27.1892L745.617 -25.8813C722.306 -12.0417 698.185 2.2744 667.685 2.2744Z" fill="white" fill-opacity="0.5"/>
</g>
<g clip-path="url(#clip2_305_2007)">
<path d="M703.764 300.561C726.97 286.822 750.979 272.618 781.129 272.618C811.279 272.618 835.287 286.812 858.503 300.561L859.275 299.253C835.926 285.413 811.705 271.097 781.108 271.097C750.512 271.097 726.351 285.413 702.942 299.253L703.764 300.561Z" fill="white" fill-opacity="0.5"/>
<path d="M1014.8 300.561C1038.01 286.822 1062.01 272.618 1092.16 272.618C1122.31 272.618 1146.32 286.812 1169.54 300.561L1170.31 299.253C1146.96 285.413 1122.74 271.097 1092.14 271.097C1061.54 271.097 1037.39 285.413 1013.97 299.253L1014.8 300.561Z" fill="white" fill-opacity="0.5"/>
<path d="M686.049 300.581C692.018 297.316 697.988 293.778 703.764 290.361C726.97 276.602 750.938 262.408 781.128 262.408C811.319 262.408 835.287 276.602 858.544 290.361C864.31 293.778 870.279 297.316 876.258 300.581L876.989 299.242C871.04 295.988 865.082 292.46 859.315 289.053C835.967 275.213 811.745 260.897 781.149 260.897C750.552 260.897 726.392 275.213 702.982 289.053C697.226 292.47 691.267 295.988 685.318 299.242L686.049 300.581Z" fill="white" fill-opacity="0.5"/>
<path d="M997.082 300.581C1003.05 297.316 1009.02 293.778 1014.8 290.361C1038 276.602 1062.01 262.408 1092.16 262.408C1122.31 262.408 1146.32 276.602 1169.54 290.351C1175.3 293.768 1181.27 297.306 1187.25 300.571L1187.98 299.232C1182.03 295.978 1176.07 292.45 1170.31 289.043C1146.96 275.203 1122.74 260.887 1092.14 260.887C1061.54 260.887 1037.38 275.203 1013.97 289.043C1008.22 292.45 1002.26 295.978 996.31 299.232L997.082 300.581Z" fill="white" fill-opacity="0.5"/>
<path d="M664.508 300.621C678.294 295.238 691.237 287.573 703.754 280.161C726.97 266.463 750.938 252.269 781.128 252.269C811.319 252.269 835.287 266.463 858.544 280.161C871.061 287.573 884.014 295.238 897.8 300.621L898.358 299.202C884.643 293.838 871.741 286.234 859.275 278.853C835.926 265.003 811.705 250.698 781.108 250.698C750.511 250.698 726.351 265.014 702.941 278.853C690.475 286.234 677.563 293.869 663.909 299.202L664.508 300.621Z" fill="white" fill-opacity="0.5"/>
<path d="M975.53 300.621C989.326 295.238 1002.27 287.573 1014.8 280.161C1038 266.463 1062.01 252.269 1092.16 252.269C1122.31 252.269 1146.32 266.463 1169.54 280.212C1181.97 287.522 1194.83 295.136 1208.53 300.51L1209.08 299.1C1195.5 293.767 1182.68 286.184 1170.31 278.823C1146.96 264.973 1122.74 250.667 1092.14 250.667C1061.54 250.667 1037.38 264.983 1013.97 278.823C1001.51 286.204 988.595 293.838 974.941 299.171L975.53 300.621Z" fill="white" fill-opacity="0.5"/>
<path d="M936.65 298.117C967.226 298.117 991.407 283.801 1014.82 269.961C1038.02 256.223 1062.03 242.008 1092.18 242.008C1122.33 242.008 1146.34 256.203 1169.56 269.961C1181.97 277.322 1194.83 284.936 1208.53 290.31L1209.08 288.891C1195.5 283.568 1182.68 275.984 1170.31 268.613C1146.96 254.763 1122.74 240.447 1092.14 240.447C1061.54 240.447 1037.38 254.763 1013.97 268.613C990.767 282.351 966.769 296.556 936.609 296.556C906.449 296.556 882.451 282.361 859.234 268.613C835.886 254.763 811.664 240.447 781.068 240.447V241.968C811.228 241.968 835.226 256.162 858.442 269.921C881.892 283.801 906.073 298.117 936.65 298.117Z" fill="white" fill-opacity="0.5"/>
<path d="M936.65 287.917C967.226 287.917 991.407 273.601 1014.82 259.762C1038.02 246.013 1062.03 231.809 1092.18 231.809C1122.33 231.809 1146.34 246.003 1169.56 259.762C1181.97 267.122 1194.83 274.737 1208.53 280.11L1209.08 278.691C1195.5 273.368 1182.68 265.784 1170.31 258.413C1146.96 244.563 1122.74 230.247 1092.14 230.247C1061.54 230.247 1037.38 244.563 1013.97 258.413C990.767 272.151 966.769 286.356 936.609 286.356C906.449 286.356 882.451 272.161 859.234 258.413C835.886 244.563 811.664 230.247 781.068 230.247V231.768C811.228 231.768 835.226 245.963 858.442 259.721C881.892 273.561 906.073 287.917 936.65 287.917Z" fill="white" fill-opacity="0.5"/>
<path d="M936.65 277.718C967.226 277.718 991.407 263.402 1014.82 249.562C1038.02 235.814 1062.03 221.609 1092.18 221.609C1122.33 221.609 1146.34 235.804 1169.56 249.552C1181.97 256.923 1194.83 264.537 1208.53 269.911L1209.08 268.491C1195.5 263.158 1182.68 255.585 1170.31 248.214C1146.96 234.374 1122.74 220.058 1092.14 220.058C1061.54 220.058 1037.38 234.374 1013.97 248.214C990.767 261.962 966.769 276.166 936.609 276.166C906.449 276.166 882.451 261.972 859.234 248.214C835.886 234.374 811.664 220.058 781.068 220.058V221.579C811.228 221.579 835.226 235.773 858.442 249.532C881.892 263.422 906.073 277.718 936.65 277.718Z" fill="white" fill-opacity="0.5"/>
<path d="M936.65 267.477C967.226 267.477 991.407 253.161 1014.82 239.312C1038.02 225.573 1062.03 211.369 1092.18 211.369C1122.33 211.369 1146.34 225.563 1169.56 239.312C1181.97 246.713 1194.83 254.297 1208.53 259.701L1209.08 258.292C1195.5 252.959 1182.68 245.375 1170.31 238.014C1146.96 224.174 1122.74 209.858 1092.14 209.858C1061.54 209.858 1037.38 224.174 1013.97 238.014C990.767 251.752 966.769 265.967 936.609 265.967C906.449 265.967 882.451 251.772 859.234 238.014C835.886 224.174 811.664 209.858 781.068 209.858V211.379C811.228 211.379 835.226 225.573 858.442 239.322C881.892 253.202 906.073 267.477 936.65 267.477Z" fill="white" fill-opacity="0.5"/>
<path d="M936.65 257.339C967.226 257.339 991.407 243.022 1014.82 229.173C1038.02 215.435 1062.03 201.23 1092.18 201.23C1122.33 201.23 1146.34 215.424 1169.56 229.173C1181.97 236.513 1194.83 244.158 1208.53 249.501L1209.08 248.092C1195.5 242.759 1182.68 235.175 1170.31 227.814C1146.96 213.975 1122.74 199.658 1092.14 199.658C1061.54 199.658 1037.38 213.975 1013.97 227.814C990.767 241.552 966.769 255.767 936.609 255.767C906.449 255.767 882.451 241.573 859.234 227.814C835.886 213.975 811.664 199.658 781.068 199.658V201.179C811.228 201.179 835.226 215.374 858.442 229.122C881.892 243.002 906.073 257.339 936.65 257.339Z" fill="white" fill-opacity="0.5"/>
<path d="M936.65 247.108C967.226 247.108 991.407 232.792 1014.82 218.953C1038.02 205.214 1062.03 191 1092.18 191C1122.33 191 1146.34 205.194 1169.56 218.953C1181.97 226.313 1194.83 233.928 1208.53 239.301L1209.08 237.892C1195.5 232.559 1182.68 224.975 1170.31 217.614C1146.96 203.765 1122.74 189.448 1092.14 189.448C1061.54 189.448 1037.38 203.765 1013.97 217.614C990.767 231.353 966.769 245.557 936.609 245.557C906.449 245.557 882.451 231.363 859.234 217.614C835.886 203.765 811.664 189.448 781.068 189.448V190.969C811.228 190.969 835.226 205.164 858.442 218.922C881.892 232.792 906.073 247.108 936.65 247.108Z" fill="white" fill-opacity="0.5"/>
<path d="M936.65 236.909C967.226 236.909 991.407 222.592 1014.82 208.753C1038.02 195.015 1062.03 180.8 1092.18 180.8C1122.33 180.8 1146.34 194.994 1169.56 208.753C1181.97 216.114 1194.83 223.728 1208.53 229.102L1209.08 227.682C1195.5 222.359 1182.68 214.775 1170.31 207.404C1146.96 193.555 1122.74 179.239 1092.14 179.239C1061.54 179.239 1037.38 193.555 1013.97 207.404C990.767 221.143 966.769 235.347 936.609 235.347C906.449 235.347 882.451 221.153 859.234 207.404C835.886 193.555 811.664 179.239 781.068 179.239V180.759C811.228 180.759 835.226 194.954 858.442 208.712C881.892 222.592 906.073 236.909 936.65 236.909Z" fill="white" fill-opacity="0.5"/>
<path d="M936.65 226.709C967.226 226.709 991.407 212.393 1014.82 198.553C1038.02 184.805 1062.03 170.6 1092.18 170.6C1122.33 170.6 1146.34 184.795 1169.56 198.553C1181.97 205.914 1194.83 213.528 1208.53 218.902L1209.08 217.483C1195.5 212.149 1182.68 204.576 1170.31 197.205C1146.96 183.365 1122.74 169.049 1092.14 169.049C1061.54 169.049 1037.38 183.365 1013.97 197.205C990.767 210.953 966.769 225.158 936.609 225.158C906.449 225.158 882.451 210.963 859.234 197.205C835.886 183.365 811.664 169.049 781.068 169.049V170.57C811.228 170.57 835.226 184.764 858.442 198.523C881.892 212.393 906.073 226.709 936.65 226.709Z" fill="white" fill-opacity="0.5"/>
<path d="M936.65 216.509C967.226 216.509 991.407 202.193 1014.82 188.343C1038.02 174.605 1062.03 160.401 1092.18 160.401C1122.33 160.401 1146.32 174.605 1169.54 188.394C1181.97 195.714 1194.83 203.329 1208.53 208.672L1209.08 207.252C1195.5 201.919 1182.68 194.335 1170.31 186.975C1146.96 173.135 1122.74 158.819 1092.14 158.819C1061.54 158.819 1037.38 173.135 1013.97 186.975C990.767 200.723 966.769 214.927 936.609 214.927C906.449 214.927 882.451 200.733 859.234 186.975C835.886 173.135 811.664 158.819 781.068 158.819V160.34C811.228 160.34 835.226 174.534 858.442 188.282C881.892 202.193 906.073 216.509 936.65 216.509Z" fill="white" fill-opacity="0.5"/>
<path d="M936.65 206.309C967.226 206.309 991.407 191.993 1014.82 178.144C1038.02 164.405 1062.03 150.201 1092.18 150.201C1122.33 150.201 1146.34 164.395 1169.56 178.144C1181.97 185.504 1194.83 193.119 1208.53 198.533L1209.08 197.124C1195.5 191.791 1182.68 184.207 1170.31 176.846C1146.96 163.006 1122.74 148.69 1092.14 148.69C1061.54 148.69 1037.38 163.006 1013.97 176.846C990.767 190.584 966.769 204.799 936.609 204.799C906.449 204.799 882.451 190.604 859.234 176.846C835.886 163.006 811.664 148.69 781.068 148.69V150.211C811.228 150.211 835.226 164.405 858.442 178.154C881.892 191.993 906.073 206.309 936.65 206.309Z" fill="white" fill-opacity="0.5"/>
<path d="M936.65 196.11C967.226 196.11 991.407 181.794 1014.82 167.944C1038.02 154.206 1062.03 140.001 1092.18 140.001C1122.33 140.001 1146.34 154.196 1169.56 167.944C1181.97 175.305 1194.83 182.919 1208.53 188.293L1209.08 186.883C1195.5 181.55 1182.68 173.966 1170.31 166.606C1146.96 152.756 1122.74 138.45 1092.14 138.45C1061.54 138.45 1037.38 152.766 1013.97 166.606C990.767 180.344 966.769 194.559 936.609 194.559C906.449 194.559 882.451 180.364 859.234 166.606C835.886 152.766 811.664 138.45 781.068 138.45V139.971C811.228 139.971 835.226 154.165 858.442 167.914C881.892 181.794 906.073 196.11 936.65 196.11Z" fill="white" fill-opacity="0.5"/>
<path d="M936.65 185.9C967.226 185.9 991.407 171.584 1014.82 157.744C1038.02 144.006 1062.03 129.791 1092.18 129.791C1122.33 129.791 1146.34 143.986 1169.56 157.744C1181.97 165.075 1194.83 172.719 1208.53 178.093L1209.08 176.674C1195.5 171.351 1182.68 163.767 1170.31 156.396C1146.96 142.546 1122.74 128.23 1092.14 128.23C1061.54 128.23 1037.38 142.546 1013.97 156.396C990.808 170.144 966.81 184.339 936.65 184.339C906.49 184.339 882.491 170.144 859.275 156.396C835.926 142.546 811.705 128.23 781.108 128.23V129.751C811.268 129.751 835.266 143.945 858.483 157.704C881.892 171.584 906.073 185.9 936.65 185.9Z" fill="white" fill-opacity="0.5"/>
<path d="M936.65 175.7C967.226 175.7 991.407 161.384 1014.82 147.544C1038.02 133.806 1062.03 119.591 1092.18 119.591C1122.33 119.591 1146.34 133.786 1169.56 147.544C1181.97 154.936 1194.83 162.519 1208.53 167.893L1209.08 166.474C1195.5 161.151 1182.68 153.567 1170.31 146.196C1146.96 132.346 1122.74 118.03 1092.14 118.03C1061.54 118.03 1037.38 132.346 1013.97 146.196C990.808 160.005 966.81 174.199 936.65 174.199C906.49 174.199 882.491 160.005 859.275 146.257C835.926 132.407 811.705 118.091 781.108 118.091V119.612C811.268 119.612 835.266 133.806 858.483 147.565C881.892 161.384 906.073 175.7 936.65 175.7Z" fill="white" fill-opacity="0.5"/>
<path d="M936.65 165.5C967.226 165.5 991.407 151.184 1014.82 137.335C1038.02 123.596 1062.03 109.392 1092.18 109.392C1122.33 109.392 1146.34 123.586 1169.56 137.335C1181.97 144.706 1194.83 152.32 1208.53 157.693L1209.08 156.274C1195.5 150.941 1182.68 143.367 1170.31 135.996C1146.96 122.157 1122.74 107.841 1092.14 107.841C1061.54 107.841 1037.38 122.157 1013.97 135.996C990.767 149.745 966.769 163.949 936.609 163.949C906.449 163.949 882.451 149.755 859.234 135.996C835.886 122.157 811.664 107.841 781.068 107.841V109.361C811.228 109.361 835.226 123.556 858.442 137.304C881.892 151.184 906.073 165.5 936.65 165.5Z" fill="white" fill-opacity="0.5"/>
<path d="M936.65 155.301C967.226 155.301 991.407 140.985 1014.82 127.135C1038 113.366 1062.01 99.1718 1092.16 99.1718C1122.31 99.1718 1146.32 113.366 1169.54 127.115C1181.97 134.506 1194.83 142.11 1208.53 147.494L1209.08 146.074C1195.5 140.741 1182.68 133.157 1170.31 125.797C1146.96 111.957 1122.74 97.6409 1092.14 97.6409C1061.54 97.6409 1037.38 111.957 1013.97 125.797C990.767 139.535 966.769 153.749 936.609 153.749C906.449 153.749 882.451 139.555 859.234 125.797C835.886 111.957 811.664 97.6409 781.068 97.6409V99.1718C811.228 99.1718 835.226 113.366 858.442 127.115C881.892 140.985 906.073 155.301 936.65 155.301Z" fill="white" fill-opacity="0.5"/>
<path d="M936.65 145.101C967.226 145.101 991.407 130.785 1014.82 116.935C1038 103.227 1062.01 89.033 1092.16 89.033C1122.31 89.033 1146.32 103.227 1169.54 116.976C1181.97 124.296 1194.83 131.91 1208.53 137.284L1209.08 135.875C1195.5 130.542 1182.68 122.958 1170.31 115.597C1146.96 101.757 1122.74 87.4412 1092.14 87.4412C1061.54 87.4412 1037.38 101.757 1013.97 115.597C990.767 129.335 966.769 143.55 936.609 143.55C906.449 143.55 882.451 129.355 859.234 115.597C835.886 101.757 811.664 87.4412 781.068 87.4412V89.033C811.228 89.033 835.226 103.227 858.442 116.976C881.892 130.785 906.073 145.101 936.65 145.101Z" fill="white" fill-opacity="0.5"/>
<path d="M936.65 134.891C967.226 134.891 991.407 120.585 1014.82 106.735C1038.02 92.9972 1062.03 78.7824 1092.18 78.7824C1122.33 78.7824 1146.34 92.9769 1169.56 106.735C1181.97 114.096 1194.83 121.711 1208.53 127.084L1209.08 125.675C1195.5 120.342 1182.68 112.758 1170.31 105.397C1146.96 91.5473 1122.74 77.2312 1092.14 77.2312C1061.54 77.2312 1037.38 91.5473 1013.97 105.397C990.767 119.135 966.769 133.34 936.609 133.34C906.449 133.34 882.451 119.145 859.234 105.397C835.886 91.5473 811.664 77.2312 781.068 77.2312V78.752C811.228 78.752 835.226 92.9465 858.442 106.705C881.892 120.585 906.073 134.891 936.65 134.891Z" fill="white" fill-opacity="0.5"/>
<path d="M936.65 124.691C967.226 124.691 991.407 110.375 1014.82 96.5358C1038.02 82.7976 1062.03 68.5829 1092.18 68.5829C1122.33 68.5829 1146.34 82.7773 1169.56 96.5358C1181.97 103.897 1194.83 111.511 1208.53 116.885L1209.08 115.465C1195.5 110.142 1182.68 102.558 1170.31 95.1873C1146.96 81.3376 1122.74 67.0215 1092.14 67.0215C1061.54 67.0215 1037.38 81.3376 1013.97 95.1873C990.767 108.926 966.769 123.13 936.609 123.13C906.449 123.13 882.451 108.936 859.234 95.1873C835.886 81.3376 811.664 67.0215 781.068 67.0215V68.5423C811.228 68.5423 835.226 82.7368 858.442 96.4952C881.892 110.375 906.073 124.691 936.65 124.691Z" fill="white" fill-opacity="0.5"/>
<path d="M936.65 114.492C967.226 114.492 991.407 100.176 1014.82 86.3361C1038.02 72.5877 1062.03 58.3832 1092.18 58.3832C1122.33 58.3832 1146.34 72.5776 1169.56 86.3361C1181.97 93.6969 1194.83 101.311 1208.53 106.685L1209.08 105.255C1195.5 99.9323 1182.68 92.3484 1170.31 84.9775C1146.96 71.1379 1122.74 56.8218 1092.14 56.8218C1061.54 56.8218 1037.38 71.1379 1013.97 84.9876C990.767 98.7258 966.769 112.93 936.609 112.93C906.449 112.93 882.451 98.7359 859.234 84.9876C835.886 71.1379 811.664 56.8218 781.068 56.8218V58.3426C811.228 58.3426 835.226 72.5371 858.442 86.2955C881.892 100.186 906.073 114.492 936.65 114.492Z" fill="white" fill-opacity="0.5"/>
<path d="M936.65 104.292C967.226 104.292 991.407 89.9759 1014.82 76.1262C1038.02 62.388 1062.03 48.1834 1092.18 48.1834C1122.33 48.1834 1146.34 62.3779 1169.56 76.1262C1181.97 83.4972 1194.83 91.1115 1208.53 96.4851L1209.08 95.1163C1195.5 89.7833 1182.68 82.2095 1170.31 74.8386C1146.96 60.999 1122.74 46.6829 1092.14 46.6829C1061.54 46.6829 1037.38 60.999 1013.97 74.8386C990.767 88.5869 966.769 102.791 936.609 102.791C906.449 102.791 882.451 88.597 859.234 74.8386C835.886 60.999 811.664 46.6829 781.068 46.6829V48.2037C811.228 48.2037 835.226 62.3981 858.442 76.1465C881.892 89.9759 906.073 104.292 936.65 104.292Z" fill="white" fill-opacity="0.5"/>
<path d="M936.65 94.1024C967.226 94.1024 991.407 79.7863 1014.82 65.9365C1038.02 52.1983 1062.03 37.9938 1092.18 37.9938C1122.33 37.9938 1146.34 52.1882 1169.56 65.9365C1181.97 73.2872 1194.83 80.9218 1208.53 86.2752L1209.08 84.8658C1195.5 79.5328 1182.68 71.9489 1170.31 64.5881C1146.96 50.7485 1122.74 36.4324 1092.14 36.4324C1061.54 36.4324 1037.38 50.7485 1013.97 64.5881C990.767 78.3263 966.769 92.541 936.609 92.541C906.449 92.541 882.451 78.3465 859.234 64.5881C835.886 50.7485 811.664 36.4324 781.068 36.4324V37.9532C811.228 37.9532 835.226 52.1477 858.442 65.896C881.892 79.7761 906.073 94.1024 936.65 94.1024Z" fill="white" fill-opacity="0.5"/>
<path d="M936.65 83.8925C967.226 83.8925 991.407 69.5764 1014.82 55.7267C1038.02 41.9885 1062.03 27.7839 1092.18 27.7839C1122.33 27.7839 1146.34 41.9784 1169.56 55.7267C1181.97 63.0875 1194.83 70.7018 1208.53 76.0754L1209.08 74.6661C1195.5 69.3331 1182.68 61.7492 1170.31 54.3884C1146.96 40.5488 1122.74 26.2327 1092.14 26.2327C1061.54 26.2327 1037.38 40.5488 1013.97 54.3884C990.767 68.1266 966.769 82.3413 936.609 82.3413C906.449 82.3413 882.451 68.1468 859.234 54.3884C835.886 40.5488 811.664 26.2327 781.068 26.2327V27.7535C811.228 27.7535 835.226 41.9479 858.442 55.6963C881.892 69.5764 906.073 83.8925 936.65 83.8925Z" fill="white" fill-opacity="0.5"/>
<path d="M936.65 73.6826C967.226 73.6826 991.407 59.3665 1014.82 45.5269C1038.02 31.7887 1062.03 17.574 1092.18 17.574C1122.33 17.574 1146.34 31.7684 1169.56 45.5269C1181.97 52.8877 1194.83 60.502 1208.53 65.8756L1209.08 64.4663C1195.5 59.1333 1182.68 51.5494 1170.31 44.1885C1146.96 30.3388 1122.74 16.0227 1092.14 16.0227C1061.54 16.0227 1037.38 30.3388 1013.97 44.1885C990.767 57.9267 966.769 72.1313 936.609 72.1313C906.449 72.1313 882.451 57.9369 859.234 44.1885C835.886 30.3388 811.664 16.0227 781.068 16.0227V17.5435C811.228 17.5435 835.226 31.738 858.442 45.4965C881.892 59.3665 906.073 73.6826 936.65 73.6826Z" fill="white" fill-opacity="0.5"/>
<path d="M936.65 63.483C967.226 63.483 991.407 49.1669 1014.82 35.3273C1038.02 21.5891 1062.03 7.37438 1092.18 7.37438C1122.33 7.37438 1146.32 21.5891 1169.54 35.2969C1181.97 42.6881 1194.83 50.3024 1208.53 55.676L1209.08 54.2566C1195.5 48.9337 1182.68 41.3498 1170.31 33.9788C1146.96 20.1291 1122.74 5.81299 1092.14 5.81299C1061.54 5.81299 1037.38 20.1291 1013.97 33.9788C990.767 47.717 966.769 61.9216 936.609 61.9216C906.449 61.9216 882.451 47.7272 859.234 33.9788C835.886 20.1291 811.664 5.81299 781.068 5.81299V7.33382C811.228 7.33382 835.226 21.5283 858.442 35.2867C881.892 49.1669 906.073 63.483 936.65 63.483Z" fill="white" fill-opacity="0.5"/>
<path d="M936.65 53.2832C967.226 53.2832 991.407 38.9671 1014.82 25.1276C1038 11.3792 1062.01 -2.82536 1092.16 -2.82536C1122.31 -2.82536 1146.32 11.3792 1169.54 25.158C1181.97 32.4884 1194.83 40.1027 1208.53 45.4357L1209.08 44.0163C1195.5 38.6934 1182.68 31.1095 1170.31 23.7385C1146.92 9.94964 1122.74 -4.34619 1092.16 -4.34619C1061.58 -4.34619 1037.4 9.96992 1013.99 23.8196C990.788 37.5578 966.79 51.7624 936.629 51.7624C906.469 51.7624 882.471 37.568 859.254 23.8196C835.906 9.96992 811.685 -4.34619 781.088 -4.34619V-2.82536C811.248 -2.82536 835.246 11.3691 858.463 25.1276C881.892 38.9671 906.073 53.2832 936.65 53.2832Z" fill="white" fill-opacity="0.5"/>
<path d="M936.65 43.0834C967.226 43.0834 991.407 28.7673 1014.82 14.9176C1038 1.1794 1062.01 -13.0252 1092.16 -13.0252C1122.31 -13.0252 1146.32 1.16926 1169.54 14.9176C1181.97 22.2886 1194.83 29.9029 1208.53 35.2968L1209.08 33.8773C1195.5 28.5443 1182.68 20.9705 1170.31 13.5995C1146.96 -0.24004 1122.74 -14.5562 1092.14 -14.5562C1061.54 -14.5562 1037.38 -0.24004 1013.97 13.5995C990.767 27.3479 966.769 41.5525 936.609 41.5525C906.449 41.5525 882.451 27.358 859.234 13.5995C835.886 -0.24004 811.664 -14.5562 781.068 -14.5562V-13.0353C811.228 -13.0353 835.226 1.15913 858.442 14.9075C881.892 28.7673 906.073 43.0834 936.65 43.0834Z" fill="white" fill-opacity="0.5"/>
<path d="M936.65 32.8837C967.226 32.8837 991.407 18.5676 1014.82 4.7179C1038 -9.02029 1062.01 -23.2249 1092.16 -23.2249C1122.31 -23.2249 1146.32 -9.02029 1169.54 4.7179C1181.97 12.0787 1194.83 19.693 1208.53 25.0667L1209.08 23.6573C1195.5 18.3243 1182.68 10.7404 1170.31 3.37957C1146.96 -10.46 1122.74 -24.7761 1092.14 -24.7761C1061.54 -24.7761 1037.38 -10.46 1013.97 3.37957C990.767 17.1178 966.769 31.3325 936.609 31.3325C906.449 31.3325 882.451 17.138 859.234 3.37957C835.886 -10.46 811.664 -24.7761 781.068 -24.7761V-23.2553C811.228 -23.2553 835.226 -9.06085 858.442 4.68749C881.892 18.5676 906.073 32.8837 936.65 32.8837Z" fill="white" fill-opacity="0.5"/>
<path d="M936.65 22.684C967.226 22.684 991.407 8.35778 1014.82 -5.4818C1027.26 -12.8629 1040.15 -20.4671 1053.83 -25.8306L1053.28 -27.25C1039.48 -21.8662 1026.54 -14.2012 1014.02 -6.78972C990.808 6.90792 966.81 21.1632 936.65 21.1632C906.49 21.1632 882.491 6.96875 859.275 -6.78972C846.758 -14.2012 833.815 -21.8662 819.968 -27.25L819.41 -25.8306C833.165 -20.4671 846.037 -12.8629 858.544 -5.4818C881.892 8.36792 906.073 22.684 936.65 22.684Z" fill="white" fill-opacity="0.5"/>
<path d="M1208.53 14.8669L1209.08 13.4576C1195.5 8.12459 1182.68 0.540697 1170.31 -6.82014C1157.93 -14.181 1144.82 -21.8662 1131.05 -27.25L1130.49 -25.8306C1144.18 -20.4671 1157.07 -12.8629 1169.54 -5.4818C1182 1.89931 1194.83 9.49334 1208.53 14.8669Z" fill="white" fill-opacity="0.5"/>
<path d="M936.65 12.4741C967.226 12.4741 991.407 -1.84198 1014.82 -15.6816C1020.57 -19.0984 1026.53 -22.6166 1032.49 -25.8204L1031.76 -27.1588C1025.78 -23.8941 1019.81 -20.3556 1014.03 -16.9388C990.808 -3.231 966.81 10.9634 936.65 10.9634C906.489 10.9634 882.491 -3.231 859.275 -16.9895C853.509 -20.4063 847.54 -23.9448 841.56 -27.2095L840.829 -25.8711C846.788 -22.6166 852.737 -19.0882 858.503 -15.7323C881.892 -1.84197 906.073 12.4741 936.65 12.4741Z" fill="white" fill-opacity="0.5"/>
<path d="M1208.53 4.66722L1209.08 3.24778C1195.5 -2.07514 1182.68 -9.65903 1170.32 -17.03C1164.54 -20.4468 1158.57 -23.9853 1152.59 -27.25L1151.86 -25.9117C1157.82 -22.6571 1163.78 -19.1287 1169.54 -15.7728C1181.97 -8.30042 1194.83 -0.70639 1208.53 4.66722Z" fill="white" fill-opacity="0.5"/>
<path d="M936.65 2.2744C967.226 2.2744 991.407 -12.0417 1014.82 -25.8813L1014.03 -27.1892C990.828 -13.451 966.83 0.753567 936.67 0.753567C906.51 0.753567 882.512 -13.4409 859.305 -27.1892L858.524 -25.8813C881.892 -12.0417 906.073 2.2744 936.65 2.2744Z" fill="white" fill-opacity="0.5"/>
</g>
<g clip-path="url(#clip3_305_2007)">
<path d="M-97.9918 300.561C-74.8431 286.822 -50.8945 272.618 -20.8195 272.618C9.25547 272.618 33.2041 286.812 56.3628 300.561L57.1324 299.253C33.842 285.413 9.68078 271.097 -20.8398 271.097C-51.3603 271.097 -75.4608 285.413 -98.812 299.253L-97.9918 300.561Z" fill="white" fill-opacity="0.5"/>
<path d="M212.267 300.561C235.426 286.822 259.364 272.618 289.439 272.618C319.514 272.618 343.463 286.812 366.622 300.561L367.391 299.253C344.101 285.413 319.939 271.097 289.419 271.097C258.898 271.097 234.808 285.413 211.447 299.253L212.267 300.561Z" fill="white" fill-opacity="0.5"/>
<path d="M-115.662 300.581C-109.708 297.316 -103.754 293.778 -97.9917 290.361C-74.8431 276.602 -50.935 262.408 -20.8195 262.408C9.29604 262.408 33.2042 276.602 56.4034 290.361C62.1551 293.778 68.1094 297.316 74.0738 300.581L74.8029 299.242C68.8689 295.988 62.9247 292.46 57.173 289.053C33.8826 275.213 9.72136 260.897 -20.7992 260.897C-51.3197 260.897 -75.4203 275.213 -98.7714 289.053C-104.513 292.47 -110.457 295.988 -116.391 299.242L-115.662 300.581Z" fill="white" fill-opacity="0.5"/>
<path d="M194.596 300.581C200.551 297.316 206.505 293.778 212.267 290.361C235.415 276.602 259.364 262.408 289.439 262.408C319.514 262.408 343.463 276.602 366.621 290.351C372.373 293.768 378.327 297.306 384.292 300.571L385.021 299.232C379.087 295.978 373.143 292.45 367.391 289.043C344.101 275.203 319.939 260.887 289.419 260.887C258.898 260.887 234.798 275.203 211.446 289.043C205.705 292.45 199.761 295.978 193.827 299.232L194.596 300.581Z" fill="white" fill-opacity="0.5"/>
<path d="M-137.15 300.621C-123.398 295.238 -110.488 287.573 -98.0018 280.161C-74.8431 266.463 -50.935 252.269 -20.8194 252.269C9.29607 252.269 33.2042 266.463 56.4034 280.161C68.8891 287.573 81.8103 295.238 95.5617 300.621L96.1187 299.202C82.4381 293.838 69.5676 286.234 57.1325 278.853C33.8421 265.003 9.68087 250.698 -20.8397 250.698C-51.3602 250.698 -75.4608 265.014 -98.8119 278.853C-111.247 286.234 -124.128 293.869 -137.747 299.202L-137.15 300.621Z" fill="white" fill-opacity="0.5"/>
<path d="M173.098 300.621C186.86 295.238 199.771 287.573 212.267 280.161C235.415 266.463 259.364 252.269 289.439 252.269C319.514 252.269 343.463 266.463 366.621 280.212C379.026 287.522 391.856 295.136 405.516 300.51L406.063 299.1C392.524 293.767 379.735 286.184 367.391 278.823C344.101 264.973 319.939 250.667 289.419 250.667C258.898 250.667 234.798 264.983 211.447 278.823C199.012 286.204 186.131 293.838 172.511 299.171L173.098 300.621Z" fill="white" fill-opacity="0.5"/>
<path d="M134.315 298.117C164.815 298.117 188.936 283.801 212.287 269.961C235.436 256.223 259.384 242.008 289.459 242.008C319.534 242.008 343.483 256.203 366.642 269.961C379.026 277.322 391.856 284.936 405.516 290.31L406.063 288.891C392.524 283.568 379.735 275.984 367.391 268.613C344.101 254.763 319.939 240.447 289.419 240.447C258.898 240.447 234.798 254.763 211.447 268.613C188.298 282.351 164.359 296.556 134.274 296.556C104.189 296.556 80.2507 282.361 57.092 268.613C33.8016 254.763 9.64029 240.447 -20.8802 240.447V241.968C9.20486 241.968 33.1433 256.162 56.3021 269.921C79.6938 283.801 103.815 298.117 134.315 298.117Z" fill="white" fill-opacity="0.5"/>
<path d="M134.315 287.917C164.815 287.917 188.936 273.601 212.287 259.762C235.436 246.013 259.384 231.809 289.459 231.809C319.534 231.809 343.483 246.003 366.642 259.762C379.026 267.122 391.856 274.737 405.516 280.11L406.063 278.691C392.524 273.368 379.735 265.784 367.391 258.413C344.101 244.563 319.939 230.247 289.419 230.247C258.898 230.247 234.798 244.563 211.447 258.413C188.298 272.151 164.359 286.356 134.274 286.356C104.189 286.356 80.2507 272.161 57.092 258.413C33.8016 244.563 9.64029 230.247 -20.8802 230.247V231.768C9.20486 231.768 33.1433 245.963 56.3021 259.721C79.6938 273.561 103.815 287.917 134.315 287.917Z" fill="white" fill-opacity="0.5"/>
<path d="M134.315 277.718C164.815 277.718 188.936 263.402 212.287 249.562C235.436 235.814 259.384 221.609 289.459 221.609C319.534 221.609 343.483 235.804 366.642 249.552C379.026 256.923 391.856 264.537 405.516 269.911L406.063 268.491C392.524 263.158 379.735 255.585 367.391 248.214C344.101 234.374 319.939 220.058 289.419 220.058C258.898 220.058 234.798 234.374 211.447 248.214C188.298 261.962 164.359 276.166 134.274 276.166C104.189 276.166 80.2507 261.972 57.092 248.214C33.8016 234.374 9.64029 220.058 -20.8802 220.058V221.579C9.20486 221.579 33.1433 235.773 56.3021 249.532C79.6938 263.422 103.815 277.718 134.315 277.718Z" fill="white" fill-opacity="0.5"/>
<path d="M134.315 267.477C164.815 267.477 188.936 253.161 212.287 239.312C235.436 225.573 259.384 211.369 289.459 211.369C319.534 211.369 343.483 225.563 366.642 239.312C379.026 246.713 391.856 254.297 405.516 259.701L406.063 258.292C392.524 252.959 379.735 245.375 367.391 238.014C344.101 224.174 319.939 209.858 289.419 209.858C258.898 209.858 234.798 224.174 211.447 238.014C188.298 251.752 164.359 265.967 134.274 265.967C104.189 265.967 80.2507 251.772 57.092 238.014C33.8016 224.174 9.64029 209.858 -20.8802 209.858V211.379C9.20486 211.379 33.1433 225.573 56.3021 239.322C79.6938 253.202 103.815 267.477 134.315 267.477Z" fill="white" fill-opacity="0.5"/>
<path d="M134.315 257.339C164.815 257.339 188.936 243.022 212.287 229.173C235.436 215.435 259.384 201.23 289.459 201.23C319.534 201.23 343.483 215.424 366.642 229.173C379.026 236.513 391.856 244.158 405.516 249.501L406.063 248.092C392.524 242.759 379.735 235.175 367.391 227.814C344.101 213.975 319.939 199.658 289.419 199.658C258.898 199.658 234.798 213.975 211.447 227.814C188.298 241.552 164.359 255.767 134.274 255.767C104.189 255.767 80.2507 241.573 57.092 227.814C33.8016 213.975 9.64029 199.658 -20.8802 199.658V201.179C9.20486 201.179 33.1433 215.374 56.3021 229.122C79.6938 243.002 103.815 257.339 134.315 257.339Z" fill="white" fill-opacity="0.5"/>
<path d="M134.315 247.108C164.815 247.108 188.936 232.792 212.287 218.953C235.436 205.214 259.384 191 289.459 191C319.534 191 343.483 205.194 366.642 218.953C379.026 226.313 391.856 233.928 405.516 239.301L406.063 237.892C392.524 232.559 379.735 224.975 367.391 217.614C344.101 203.765 319.939 189.448 289.419 189.448C258.898 189.448 234.798 203.765 211.447 217.614C188.298 231.353 164.359 245.557 134.274 245.557C104.189 245.557 80.2507 231.363 57.092 217.614C33.8016 203.765 9.64029 189.448 -20.8802 189.448V190.969C9.20486 190.969 33.1433 205.164 56.3021 218.922C79.6938 232.792 103.815 247.108 134.315 247.108Z" fill="white" fill-opacity="0.5"/>
<path d="M134.315 236.909C164.815 236.909 188.936 222.592 212.287 208.753C235.436 195.015 259.384 180.8 289.459 180.8C319.534 180.8 343.483 194.994 366.642 208.753C379.026 216.114 391.856 223.728 405.516 229.102L406.063 227.682C392.524 222.359 379.735 214.775 367.391 207.404C344.101 193.555 319.939 179.239 289.419 179.239C258.898 179.239 234.798 193.555 211.447 207.404C188.298 221.143 164.359 235.347 134.274 235.347C104.189 235.347 80.2507 221.153 57.092 207.404C33.8016 193.555 9.64029 179.239 -20.8802 179.239V180.759C9.20486 180.759 33.1433 194.954 56.3021 208.712C79.6938 222.592 103.815 236.909 134.315 236.909Z" fill="white" fill-opacity="0.5"/>
<path d="M134.315 226.709C164.815 226.709 188.936 212.393 212.287 198.553C235.436 184.805 259.384 170.6 289.459 170.6C319.534 170.6 343.483 184.795 366.642 198.553C379.026 205.914 391.856 213.528 405.516 218.902L406.063 217.483C392.524 212.149 379.735 204.576 367.391 197.205C344.101 183.365 319.939 169.049 289.419 169.049C258.898 169.049 234.798 183.365 211.447 197.205C188.298 210.953 164.359 225.158 134.274 225.158C104.189 225.158 80.2507 210.963 57.092 197.205C33.8016 183.365 9.64029 169.049 -20.8802 169.049V170.57C9.20486 170.57 33.1433 184.764 56.3021 198.523C79.6938 212.393 103.815 226.709 134.315 226.709Z" fill="white" fill-opacity="0.5"/>
<path d="M134.315 216.509C164.815 216.509 188.936 202.193 212.287 188.343C235.436 174.605 259.384 160.401 289.459 160.401C319.534 160.401 343.463 174.605 366.621 188.394C379.026 195.714 391.856 203.329 405.516 208.672L406.063 207.252C392.524 201.919 379.735 194.335 367.391 186.975C344.101 173.135 319.939 158.819 289.419 158.819C258.898 158.819 234.798 173.135 211.447 186.975C188.298 200.723 164.359 214.927 134.274 214.927C104.189 214.927 80.2507 200.733 57.092 186.975C33.8016 173.135 9.64029 158.819 -20.8802 158.819V160.34C9.20486 160.34 33.1433 174.534 56.3021 188.282C79.6938 202.193 103.815 216.509 134.315 216.509Z" fill="white" fill-opacity="0.5"/>
<path d="M134.315 206.309C164.815 206.309 188.936 191.993 212.287 178.144C235.436 164.405 259.384 150.201 289.459 150.201C319.534 150.201 343.483 164.395 366.642 178.144C379.026 185.504 391.856 193.119 405.516 198.533L406.063 197.124C392.524 191.791 379.735 184.207 367.391 176.846C344.101 163.006 319.939 148.69 289.419 148.69C258.898 148.69 234.798 163.006 211.447 176.846C188.298 190.584 164.359 204.799 134.274 204.799C104.189 204.799 80.2507 190.604 57.092 176.846C33.8016 163.006 9.64029 148.69 -20.8802 148.69V150.211C9.20486 150.211 33.1433 164.405 56.3021 178.154C79.6938 191.993 103.815 206.309 134.315 206.309Z" fill="white" fill-opacity="0.5"/>
<path d="M134.315 196.11C164.815 196.11 188.936 181.794 212.287 167.944C235.436 154.206 259.384 140.001 289.459 140.001C319.534 140.001 343.483 154.196 366.642 167.944C379.026 175.305 391.856 182.919 405.516 188.293L406.063 186.883C392.524 181.55 379.735 173.966 367.391 166.606C344.101 152.756 319.939 138.45 289.419 138.45C258.898 138.45 234.798 152.766 211.447 166.606C188.298 180.344 164.359 194.559 134.274 194.559C104.189 194.559 80.2507 180.364 57.092 166.606C33.8016 152.766 9.64029 138.45 -20.8802 138.45V139.971C9.20486 139.971 33.1433 154.165 56.3021 167.914C79.6938 181.794 103.815 196.11 134.315 196.11Z" fill="white" fill-opacity="0.5"/>
<path d="M134.315 185.9C164.815 185.9 188.936 171.584 212.287 157.744C235.436 144.006 259.384 129.791 289.459 129.791C319.534 129.791 343.483 143.986 366.642 157.744C379.026 165.075 391.856 172.719 405.516 178.093L406.063 176.674C392.524 171.351 379.735 163.767 367.391 156.396C344.101 142.546 319.939 128.23 289.419 128.23C258.898 128.23 234.798 142.546 211.447 156.396C188.338 170.144 164.4 184.339 134.315 184.339C104.23 184.339 80.2912 170.144 57.1325 156.396C33.8421 142.546 9.68082 128.23 -20.8398 128.23V129.751C9.24539 129.751 33.1839 143.945 56.3426 157.704C79.6938 171.584 103.815 185.9 134.315 185.9Z" fill="white" fill-opacity="0.5"/>
<path d="M134.315 175.7C164.815 175.7 188.936 161.384 212.287 147.544C235.436 133.806 259.384 119.591 289.459 119.591C319.534 119.591 343.483 133.786 366.642 147.544C379.026 154.936 391.856 162.519 405.516 167.893L406.063 166.474C392.524 161.151 379.735 153.567 367.391 146.196C344.101 132.346 319.939 118.03 289.419 118.03C258.898 118.03 234.798 132.346 211.447 146.196C188.338 160.005 164.4 174.199 134.315 174.199C104.23 174.199 80.2912 160.005 57.1325 146.257C33.8421 132.407 9.68082 118.091 -20.8398 118.091V119.612C9.24539 119.612 33.1839 133.806 56.3426 147.565C79.6938 161.384 103.815 175.7 134.315 175.7Z" fill="white" fill-opacity="0.5"/>
<path d="M134.315 165.5C164.815 165.5 188.936 151.184 212.287 137.335C235.436 123.596 259.384 109.392 289.459 109.392C319.534 109.392 343.483 123.586 366.642 137.335C379.026 144.706 391.856 152.32 405.516 157.693L406.063 156.274C392.524 150.941 379.735 143.367 367.391 135.996C344.101 122.157 319.939 107.841 289.419 107.841C258.898 107.841 234.798 122.157 211.447 135.996C188.298 149.745 164.359 163.949 134.274 163.949C104.189 163.949 80.2507 149.755 57.092 135.996C33.8016 122.157 9.64029 107.841 -20.8802 107.841V109.361C9.20486 109.361 33.1433 123.556 56.3021 137.304C79.6938 151.184 103.815 165.5 134.315 165.5Z" fill="white" fill-opacity="0.5"/>
<path d="M134.315 155.301C164.815 155.301 188.936 140.985 212.287 127.135C235.415 113.366 259.364 99.1718 289.439 99.1718C319.514 99.1718 343.463 113.366 366.621 127.115C379.026 134.506 391.856 142.11 405.516 147.494L406.063 146.074C392.524 140.741 379.735 133.157 367.391 125.797C344.101 111.957 319.939 97.6409 289.419 97.6409C258.898 97.6409 234.798 111.957 211.447 125.797C188.298 139.535 164.359 153.749 134.274 153.749C104.189 153.749 80.2507 139.555 57.092 125.797C33.8016 111.957 9.64029 97.6409 -20.8802 97.6409V99.1718C9.20486 99.1718 33.1433 113.366 56.3021 127.115C79.6938 140.985 103.815 155.301 134.315 155.301Z" fill="white" fill-opacity="0.5"/>
<path d="M134.315 145.101C164.815 145.101 188.936 130.785 212.287 116.935C235.415 103.227 259.364 89.033 289.439 89.033C319.514 89.033 343.463 103.227 366.621 116.976C379.026 124.296 391.856 131.91 405.516 137.284L406.063 135.875C392.524 130.542 379.735 122.958 367.391 115.597C344.101 101.757 319.939 87.4412 289.419 87.4412C258.898 87.4412 234.798 101.757 211.447 115.597C188.298 129.335 164.359 143.55 134.274 143.55C104.189 143.55 80.2507 129.355 57.092 115.597C33.8016 101.757 9.64029 87.4412 -20.8802 87.4412V89.033C9.20486 89.033 33.1433 103.227 56.3021 116.976C79.6938 130.785 103.815 145.101 134.315 145.101Z" fill="white" fill-opacity="0.5"/>
<path d="M134.315 134.891C164.815 134.891 188.936 120.585 212.287 106.735C235.436 92.9972 259.384 78.7824 289.459 78.7824C319.534 78.7824 343.483 92.9769 366.642 106.735C379.026 114.096 391.856 121.711 405.516 127.084L406.063 125.675C392.524 120.342 379.735 112.758 367.391 105.397C344.101 91.5473 319.939 77.2312 289.419 77.2312C258.898 77.2312 234.798 91.5473 211.447 105.397C188.298 119.135 164.359 133.34 134.274 133.34C104.189 133.34 80.2507 119.145 57.092 105.397C33.8016 91.5473 9.64029 77.2312 -20.8802 77.2312V78.752C9.20486 78.752 33.1433 92.9465 56.3021 106.705C79.6938 120.585 103.815 134.891 134.315 134.891Z" fill="white" fill-opacity="0.5"/>
<path d="M134.315 124.691C164.815 124.691 188.936 110.375 212.287 96.5358C235.436 82.7976 259.384 68.5829 289.459 68.5829C319.534 68.5829 343.483 82.7773 366.642 96.5358C379.026 103.897 391.856 111.511 405.516 116.885L406.063 115.465C392.524 110.142 379.735 102.558 367.391 95.1873C344.101 81.3376 319.939 67.0215 289.419 67.0215C258.898 67.0215 234.798 81.3376 211.447 95.1873C188.298 108.926 164.359 123.13 134.274 123.13C104.189 123.13 80.2507 108.936 57.092 95.1873C33.8016 81.3376 9.64029 67.0215 -20.8802 67.0215V68.5423C9.20486 68.5423 33.1433 82.7368 56.3021 96.4952C79.6938 110.375 103.815 124.691 134.315 124.691Z" fill="white" fill-opacity="0.5"/>
<path d="M134.315 114.492C164.815 114.492 188.936 100.176 212.287 86.3361C235.436 72.5877 259.384 58.3832 289.459 58.3832C319.534 58.3832 343.483 72.5776 366.642 86.3361C379.026 93.6969 391.856 101.311 405.516 106.685L406.063 105.255C392.524 99.9323 379.735 92.3484 367.391 84.9775C344.101 71.1379 319.939 56.8218 289.419 56.8218C258.898 56.8218 234.798 71.1379 211.447 84.9876C188.298 98.7258 164.359 112.93 134.274 112.93C104.189 112.93 80.2507 98.7359 57.092 84.9876C33.8016 71.1379 9.64029 56.8218 -20.8802 56.8218V58.3426C9.20486 58.3426 33.1433 72.5371 56.3021 86.2955C79.6938 100.186 103.815 114.492 134.315 114.492Z" fill="white" fill-opacity="0.5"/>
<path d="M134.315 104.292C164.815 104.292 188.936 89.9759 212.287 76.1262C235.436 62.388 259.384 48.1834 289.459 48.1834C319.534 48.1834 343.483 62.3779 366.642 76.1262C379.026 83.4972 391.856 91.1115 405.516 96.4851L406.063 95.1163C392.524 89.7833 379.735 82.2095 367.391 74.8386C344.101 60.999 319.939 46.6829 289.419 46.6829C258.898 46.6829 234.798 60.999 211.447 74.8386C188.298 88.5869 164.359 102.791 134.274 102.791C104.189 102.791 80.2507 88.597 57.092 74.8386C33.8016 60.999 9.64029 46.6829 -20.8802 46.6829V48.2037C9.20486 48.2037 33.1433 62.3981 56.3021 76.1465C79.6938 89.9759 103.815 104.292 134.315 104.292Z" fill="white" fill-opacity="0.5"/>
<path d="M134.315 94.1024C164.815 94.1024 188.936 79.7863 212.287 65.9365C235.436 52.1983 259.384 37.9938 289.459 37.9938C319.534 37.9938 343.483 52.1882 366.642 65.9365C379.026 73.2872 391.856 80.9218 405.516 86.2752L406.063 84.8658C392.524 79.5328 379.735 71.9489 367.391 64.5881C344.101 50.7485 319.939 36.4324 289.419 36.4324C258.898 36.4324 234.798 50.7485 211.447 64.5881C188.298 78.3263 164.359 92.541 134.274 92.541C104.189 92.541 80.2507 78.3465 57.092 64.5881C33.8016 50.7485 9.64029 36.4324 -20.8802 36.4324V37.9532C9.20486 37.9532 33.1433 52.1477 56.3021 65.896C79.6938 79.7761 103.815 94.1024 134.315 94.1024Z" fill="white" fill-opacity="0.5"/>
<path d="M134.315 83.8925C164.815 83.8925 188.936 69.5764 212.287 55.7267C235.436 41.9885 259.384 27.7839 289.459 27.7839C319.534 27.7839 343.483 41.9784 366.642 55.7267C379.026 63.0875 391.856 70.7018 405.516 76.0754L406.063 74.6661C392.524 69.3331 379.735 61.7492 367.391 54.3884C344.101 40.5488 319.939 26.2327 289.419 26.2327C258.898 26.2327 234.798 40.5488 211.447 54.3884C188.298 68.1266 164.359 82.3413 134.274 82.3413C104.189 82.3413 80.2507 68.1468 57.092 54.3884C33.8016 40.5488 9.64029 26.2327 -20.8802 26.2327V27.7535C9.20486 27.7535 33.1433 41.9479 56.3021 55.6963C79.6938 69.5764 103.815 83.8925 134.315 83.8925Z" fill="white" fill-opacity="0.5"/>
<path d="M134.315 73.6826C164.815 73.6826 188.936 59.3665 212.287 45.5269C235.436 31.7887 259.384 17.574 289.459 17.574C319.534 17.574 343.483 31.7684 366.642 45.5269C379.026 52.8877 391.856 60.502 405.516 65.8756L406.063 64.4663C392.524 59.1333 379.735 51.5494 367.391 44.1885C344.101 30.3388 319.939 16.0227 289.419 16.0227C258.898 16.0227 234.798 30.3388 211.447 44.1885C188.298 57.9267 164.359 72.1313 134.274 72.1313C104.189 72.1313 80.2507 57.9369 57.092 44.1885C33.8016 30.3388 9.64029 16.0227 -20.8802 16.0227V17.5435C9.20486 17.5435 33.1433 31.738 56.3021 45.4965C79.6938 59.3665 103.815 73.6826 134.315 73.6826Z" fill="white" fill-opacity="0.5"/>
<path d="M134.315 63.483C164.815 63.483 188.936 49.1669 212.287 35.3273C235.436 21.5891 259.384 7.37438 289.459 7.37438C319.534 7.37438 343.463 21.5891 366.621 35.2969C379.026 42.6881 391.856 50.3024 405.516 55.676L406.063 54.2566C392.524 48.9337 379.735 41.3498 367.391 33.9788C344.101 20.1291 319.939 5.81299 289.419 5.81299C258.898 5.81299 234.798 20.1291 211.447 33.9788C188.298 47.717 164.359 61.9216 134.274 61.9216C104.189 61.9216 80.2507 47.7272 57.092 33.9788C33.8016 20.1291 9.64029 5.81299 -20.8802 5.81299V7.33382C9.20486 7.33382 33.1433 21.5283 56.3021 35.2867C79.6938 49.1669 103.815 63.483 134.315 63.483Z" fill="white" fill-opacity="0.5"/>
<path d="M134.315 53.2832C164.815 53.2832 188.936 38.9671 212.287 25.1276C235.415 11.3792 259.364 -2.82536 289.439 -2.82536C319.514 -2.82536 343.463 11.3792 366.621 25.158C379.026 32.4884 391.856 40.1027 405.516 45.4357L406.063 44.0163C392.524 38.6934 379.735 31.1095 367.391 23.7385C344.06 9.94964 319.939 -4.34619 289.439 -4.34619C258.939 -4.34619 234.818 9.96992 211.467 23.8196C188.318 37.5578 164.38 51.7624 134.295 51.7624C104.21 51.7624 80.271 37.568 57.1122 23.8196C33.8218 9.96992 9.66058 -4.34619 -20.86 -4.34619V-2.82536C9.22513 -2.82536 33.1636 11.3691 56.3224 25.1276C79.6938 38.9671 103.815 53.2832 134.315 53.2832Z" fill="white" fill-opacity="0.5"/>
<path d="M134.315 43.0834C164.815 43.0834 188.936 28.7673 212.287 14.9176C235.415 1.1794 259.364 -13.0252 289.439 -13.0252C319.514 -13.0252 343.463 1.16926 366.621 14.9176C379.026 22.2886 391.856 29.9029 405.516 35.2968L406.063 33.8773C392.524 28.5443 379.735 20.9705 367.391 13.5995C344.101 -0.24004 319.939 -14.5562 289.419 -14.5562C258.898 -14.5562 234.798 -0.24004 211.447 13.5995C188.298 27.3479 164.359 41.5525 134.274 41.5525C104.189 41.5525 80.2507 27.358 57.092 13.5995C33.8016 -0.24004 9.64029 -14.5562 -20.8802 -14.5562V-13.0353C9.20486 -13.0353 33.1433 1.15913 56.3021 14.9075C79.6938 28.7673 103.815 43.0834 134.315 43.0834Z" fill="white" fill-opacity="0.5"/>
<path d="M134.315 32.8837C164.815 32.8837 188.936 18.5676 212.287 4.7179C235.415 -9.02029 259.364 -23.2249 289.439 -23.2249C319.514 -23.2249 343.463 -9.02029 366.621 4.7179C379.026 12.0787 391.856 19.693 405.516 25.0667L406.063 23.6573C392.524 18.3243 379.735 10.7404 367.391 3.37957C344.101 -10.46 319.939 -24.7761 289.419 -24.7761C258.898 -24.7761 234.798 -10.46 211.447 3.37957C188.298 17.1178 164.359 31.3325 134.274 31.3325C104.189 31.3325 80.2507 17.138 57.092 3.37957C33.8016 -10.46 9.64029 -24.7761 -20.8802 -24.7761V-23.2553C9.20486 -23.2553 33.1433 -9.06085 56.3021 4.68749C79.6938 18.5676 103.815 32.8837 134.315 32.8837Z" fill="white" fill-opacity="0.5"/>
<path d="M134.315 22.684C164.815 22.684 188.936 8.35778 212.287 -5.4818C224.702 -12.8629 237.562 -20.4671 251.202 -25.8306L250.656 -27.25C236.894 -21.8662 223.983 -14.2012 211.497 -6.78972C188.339 6.90792 164.4 21.1632 134.315 21.1632C104.23 21.1632 80.2913 6.96875 57.1326 -6.78972C44.6469 -14.2012 31.7359 -21.8662 17.9237 -27.25L17.3667 -25.8306C31.0878 -20.4671 43.9279 -12.8629 56.4035 -5.4818C79.6939 8.36792 103.815 22.684 134.315 22.684Z" fill="white" fill-opacity="0.5"/>
<path d="M405.516 14.8669L406.063 13.4576C392.524 8.12459 379.735 0.540697 367.391 -6.82014C355.047 -14.181 341.964 -21.8662 328.233 -27.25L327.676 -25.8306C341.326 -20.4671 354.186 -12.8629 366.621 -5.4818C379.056 1.89931 391.856 9.49334 405.516 14.8669Z" fill="white" fill-opacity="0.5"/>
<path d="M134.315 12.4741C164.815 12.4741 188.936 -1.84198 212.287 -15.6816C218.029 -19.0984 223.973 -22.6166 229.917 -25.8204L229.188 -27.1588C223.224 -23.8941 217.269 -20.3556 211.507 -16.9388C188.339 -3.231 164.4 10.9634 134.315 10.9634C104.23 10.9634 80.2913 -3.231 57.1326 -16.9895C51.3808 -20.4063 45.4266 -23.9448 39.4622 -27.2095L38.7331 -25.8711C44.6772 -22.6166 50.6112 -19.0882 56.363 -15.7323C79.6939 -1.84197 103.815 12.4741 134.315 12.4741Z" fill="white" fill-opacity="0.5"/>
<path d="M405.516 4.66722L406.063 3.24778C392.524 -2.07514 379.735 -9.65903 367.401 -17.03C361.639 -20.4468 355.685 -23.9853 349.721 -27.25L348.992 -25.9117C354.936 -22.6571 360.88 -19.1287 366.621 -15.7728C379.026 -8.30042 391.856 -0.70639 405.516 4.66722Z" fill="white" fill-opacity="0.5"/>
<path d="M134.315 2.2744C164.815 2.2744 188.936 -12.0417 212.287 -25.8813L211.507 -27.1892C188.359 -13.451 164.42 0.753567 134.335 0.753567C104.25 0.753567 80.3115 -13.4409 57.1629 -27.1892L56.3832 -25.8813C79.6938 -12.0417 103.815 2.2744 134.315 2.2744Z" fill="white" fill-opacity="0.5"/>
</g>
<defs>
<clipPath id="clip0_305_2007">
<rect width="401" height="292" fill="white" transform="translate(1204 -9)"/>
</clipPath>
<clipPath id="clip1_305_2007">
<rect width="401" height="292" fill="white" transform="translate(401 -9)"/>
</clipPath>
<clipPath id="clip2_305_2007">
<rect width="402" height="292" fill="white" transform="matrix(-1 0 0 1 1204 -9)"/>
</clipPath>
<clipPath id="clip3_305_2007">
<rect width="401" height="292" fill="white" transform="matrix(-1 0 0 1 401 -9)"/>
</clipPath>
</defs>
</svg>
