<svg width="119" height="96" viewBox="0 0 119 96" fill="none" xmlns="http://www.w3.org/2000/svg">
<g clip-path="url(#clip0_305_2412)">
<path d="M104.182 9.00674C105.178 7.41742 107.334 4.93679 108.467 5.64653C109.632 6.37656 108.611 9.03649 107.615 10.6258L104.22 16.0444L107.182 24.9546C107.339 25.4223 107.228 26.0386 106.893 26.573L106.209 27.5334C105.901 28.026 105.346 28.177 105.101 27.8354L100.488 21.3764L97.7744 25.6514L98.8663 29.5291C98.9084 29.7497 98.8463 30.0214 98.7008 30.2538L97.4778 32.2056C97.2507 32.568 96.8663 32.7284 96.6171 32.5723C96.575 32.5459 96.5388 32.5102 96.5054 32.4699L93.8593 28.7734L89.3788 28.0046C89.3251 27.9968 89.2801 27.9751 89.238 27.9488C88.9856 27.7906 88.9684 27.3721 89.1926 27.0143L90.4155 25.0625C90.5611 24.8301 90.7785 24.6557 90.9953 24.5974L95.0642 24.1125L97.7807 19.8328L89.8535 18.2755C89.436 18.2081 89.3301 17.6434 89.6388 17.1508L90.3227 16.1904C90.6576 15.656 91.1669 15.2891 91.6533 15.225L100.787 14.4253L104.182 9.00674Z" fill="black"/>
</g>
<g clip-path="url(#clip1_305_2412)">
<path d="M4.06692 55.3379C13.6273 68.6332 31.7935 73.4598 47.4864 72.0261C55.2248 71.3232 63.2423 68.3274 67.1975 61.1889C68.8905 58.0883 69.701 54.447 68.8172 50.9667C68.2915 48.8529 67.0793 46.53 64.758 46.0622C61.2243 45.3556 60.2677 49.3221 62.1323 51.6819C65.614 56.0374 72.7143 51.7518 75.8998 49.2031C79.6325 46.2143 82.4882 42.3348 85.0274 38.3159C85.7465 37.1746 87.4211 38.4642 86.6933 39.5987C83.6388 44.395 80.0361 49.0191 75.2398 52.1891C71.7635 54.4931 67.0255 56.5409 62.9021 54.6785C59.903 53.3137 58.0354 49.2077 59.8264 46.1965C61.6933 43.0144 66.1134 43.5353 68.4177 45.8656C74.8833 52.3453 69.7447 63.4562 63.8458 68.2294C55.6387 74.8723 43.4249 74.9005 33.5057 73.3473C21.6883 71.4716 10.1859 66.0385 3.29741 55.9402C2.97887 55.4518 3.70308 54.8632 4.0555 55.3708L4.06692 55.3379Z" fill="#FFD5D5"/>
<path d="M75.8825 40.8811C77.0943 42.7175 82.8166 38.6697 83.815 38.0769C84.6637 37.5703 85.6657 36.9457 86.6046 37.7382C87.6089 38.581 87.1266 40.4883 87.0579 41.5608C86.8877 44.2085 86.8077 46.8562 86.5166 49.4804C86.377 50.7623 84.5445 50.4626 84.569 49.231C84.6195 47.0816 84.811 44.9296 84.9528 42.7879C84.9852 42.3127 85.4611 39.8726 84.9622 39.6273C84.395 39.937 83.8531 40.2908 83.3414 40.6856C81.342 41.8204 77.5281 43.5795 75.2652 42.3232C75.1241 42.2588 75.0063 42.1525 74.9278 42.0187C74.8493 41.8849 74.814 41.7301 74.8267 41.5756L74.8574 41.1477C74.8652 41.0326 74.9089 40.9229 74.9824 40.834C75.0559 40.7451 75.1555 40.6815 75.2671 40.6523C75.3787 40.623 75.4966 40.6296 75.6043 40.671C75.7119 40.7124 75.8039 40.7866 75.8671 40.8831L75.8825 40.8811Z" fill="#FFD5D5"/>
</g>
<defs>
<clipPath id="clip0_305_2412">
<rect width="31.5878" height="21.674" fill="white" transform="translate(83 26.7675) rotate(-57.93)"/>
</clipPath>
<clipPath id="clip1_305_2412">
<rect width="64.871" height="67.1442" fill="white" transform="matrix(0.79229 0.610145 0.610145 -0.79229 0 55.7837)"/>
</clipPath>
</defs>
</svg>
