<svg width="74" height="76" viewBox="0 0 74 76" fill="none" xmlns="http://www.w3.org/2000/svg">
<g clip-path="url(#clip0_305_2423)">
<path d="M25.4245 68.1611C25.5924 68.246 25.7585 68.3277 25.9232 68.4144L25.5236 68.9285C26.3946 68.6793 28.0816 69.4686 28.9962 69.6552C30.0842 69.8728 31.1861 70.0823 32.3017 70.2839C33.6615 70.5137 36.7855 71.556 37.9943 70.524C39.3676 69.3505 38.1616 66.6512 37.87 65.2635C37.5937 63.9514 37.3174 62.6394 37.0411 61.3274L36.5916 59.1808C36.5413 58.9393 36.4896 58.7027 36.4412 58.4643C36.4762 57.5983 36.2573 57.5133 35.7628 58.1793L34.6243 57.8767L34.8526 58.0663L34.5415 56.9097L35.0655 56.5522C34.8688 56.5561 34.6774 56.6173 34.5147 56.7281C34.3519 56.8389 34.225 56.9946 34.1494 57.1761C34.0739 57.3576 34.0529 57.5569 34.0892 57.7497C34.1255 57.9425 34.2175 58.1203 34.3538 58.2613C34.5445 58.4756 34.7952 58.6281 35.0738 58.6993C35.3524 58.7705 35.6462 58.757 35.9177 58.6608C36.1223 58.6086 36.3095 58.5029 36.4597 58.3544C36.6099 58.206 36.7178 58.0202 36.772 57.8165L36.8424 57.5264C36.8992 57.3232 36.9003 57.1086 36.8456 56.9051C36.7909 56.7016 36.6823 56.5167 36.5312 56.3698C35.3211 55.377 33.7782 56.0141 33.8317 57.6366C33.8851 59.0308 34.4711 60.5531 34.7732 61.9222C35.1029 63.4739 35.4418 65.0219 35.7898 66.566C36.0031 67.2663 36.161 67.9825 36.2621 68.7078C36.2637 69.1593 36.3654 69.181 36.5625 68.7796C36.1214 68.751 35.6821 68.7255 35.2218 68.708C33.8854 68.6338 32.5479 68.5236 31.2095 68.3774C29.7109 68.2235 28.2181 68.0282 26.7303 67.8047C26.0511 67.7021 25.5271 67.5225 25.0182 68.0531C24.9386 68.1376 24.8879 68.2449 24.8733 68.3597C24.8587 68.4746 24.881 68.5909 24.937 68.692C24.9944 68.8109 25.086 68.9099 25.2 68.9765C25.3141 69.0431 25.4455 69.0744 25.5777 69.0664C25.6767 69.0662 25.7731 69.0336 25.852 68.9736C25.9309 68.9135 25.9879 68.8293 26.0142 68.734L26.05 68.6415C26.0691 68.5623 26.0648 68.4795 26.0378 68.4029C26.0107 68.3263 25.962 68.2593 25.8976 68.2098C25.8331 68.1603 25.7556 68.1305 25.6744 68.1241C25.5932 68.1176 25.5118 68.1347 25.44 68.1733L25.4245 68.1611Z" fill="#5A69F2" fill-opacity="0.3"/>
<path d="M37.7329 69.2624C34.7229 66.4087 32.4782 62.8468 31.2027 58.9006C30.8477 57.837 29.1379 58.266 29.4907 59.3478C30.8609 63.5783 33.4383 67.3141 36.9077 70.0983C37.4812 70.5622 38.2938 69.7928 37.7329 69.2624Z" fill="#5A69F2" fill-opacity="0.3"/>
<path d="M28.9073 54.0056C28.4295 52.1961 28.0763 50.3557 27.8501 48.4972C27.6784 46.9642 27.8293 45.2913 27.3729 43.8168C27.1697 43.1561 26.1137 43.0553 25.943 43.7967C25.6109 45.3542 26.0321 47.1281 26.3378 48.6726C26.7177 50.5709 27.2294 52.4401 27.8692 54.2667C28.0863 54.8856 29.0376 54.6578 28.8695 54.0063L28.9073 54.0056Z" fill="#5A69F2" fill-opacity="0.3"/>
<path d="M26.5342 39.2015C26.1976 35.1799 26.4694 31.1285 27.3405 27.1834C27.5605 26.1303 25.9696 25.6914 25.7155 26.7515C24.7779 30.8884 24.739 35.1747 25.6014 39.3214C25.7057 39.8405 26.5821 39.7404 26.536 39.2046L26.5342 39.2015Z" fill="#5A69F2" fill-opacity="0.3"/>
<path d="M29.034 21.8206C29.8381 20.7643 30.4035 19.5372 31.0538 18.3837C31.5581 17.4921 32.2928 15.5287 33.3213 15.2435C33.444 15.2097 33.5575 15.1487 33.6534 15.0651C33.7493 14.9815 33.8251 14.8775 33.8753 14.7608C33.9254 14.644 33.9485 14.5176 33.9429 14.3909C33.9374 14.2642 33.9032 14.1405 33.843 14.029L33.7405 13.8514C33.6271 13.6679 33.4585 13.525 33.2587 13.443C33.0589 13.361 32.838 13.344 32.6275 13.3945C31.2839 13.6121 30.741 15.3929 30.2517 16.4576C29.5123 18.0305 28.6361 19.7415 28.3783 21.4718C28.3286 21.805 28.7716 22.2046 29.0423 21.8496L29.034 21.8206Z" fill="#5A69F2" fill-opacity="0.3"/>
<path d="M36.833 8.8309C38.1271 7.72853 39.419 6.62467 40.7085 5.5193C41.7241 4.64541 43.051 2.9575 44.2889 2.56421C44.4233 2.52614 44.5475 2.45822 44.6522 2.36556C44.7568 2.27289 44.8392 2.15789 44.8931 2.02914C44.947 1.90039 44.9711 1.76123 44.9635 1.6221C44.956 1.48296 44.9169 1.34745 44.8494 1.22572L44.7536 1.02307C44.633 0.816025 44.4478 0.654239 44.2261 0.562369C44.0044 0.470499 43.7584 0.453581 43.5256 0.514192C42.1485 0.776496 41.0486 2.48983 40.1357 3.43129C38.704 4.90342 37.2783 6.38339 35.8586 7.87121C35.2379 8.51711 36.161 9.388 36.8362 8.82906L36.833 8.8309Z" fill="#5A69F2" fill-opacity="0.3"/>
</g>
<defs>
<clipPath id="clip0_305_2423">
<rect width="51" height="58" fill="white" transform="translate(0 25.5) rotate(-30)"/>
</clipPath>
</defs>
</svg>
