<svg width="44" height="44" viewBox="0 0 44 44" fill="none" xmlns="http://www.w3.org/2000/svg">
<path d="M20.0967 1.89678C20.693 0.0492258 23.307 0.0492272 23.9033 1.89678L27.6759 13.585C27.9376 14.3956 28.6838 14.9515 29.5354 14.9702L41.3057 15.2285C43.1641 15.2693 43.9666 17.6017 42.5267 18.7773L32.9059 26.6323C32.2896 27.1356 32.0302 27.9564 32.2454 28.7224L35.6871 40.9739C36.2041 42.8142 34.092 44.2616 32.5623 43.1153L23.1994 36.0988C22.4885 35.5661 21.5115 35.5661 20.8006 36.0988L11.4377 43.1153C9.90797 44.2616 7.79585 42.8142 8.31286 40.9739L11.7546 28.7224C11.9698 27.9564 11.7104 27.1356 11.0941 26.6323L1.47326 18.7773C0.0334401 17.6017 0.835935 15.2693 2.69426 15.2285L14.4646 14.9702C15.3162 14.9515 16.0624 14.3956 16.3241 13.585L20.0967 1.89678Z" fill="black"/>
</svg>
